<svg width="29" height="29" viewBox="0 0 29 29" fill="none" xmlns="http://www.w3.org/2000/svg">
<path d="M27.134 24.856L19.0184 16.7403C20.2777 15.1122 20.959 13.1216 20.959 11.0278C20.959 8.52158 19.9809 6.17158 18.2121 4.39971C16.4434 2.62783 14.0871 1.65283 11.584 1.65283C9.08086 1.65283 6.72461 2.63096 4.95586 4.39971C3.18398 6.16846 2.20898 8.52158 2.20898 11.0278C2.20898 13.531 3.18711 15.8872 4.95586 17.656C6.72461 19.4278 9.07773 20.4028 11.584 20.4028C13.6777 20.4028 15.6652 19.7216 17.2934 18.4653L25.409 26.5778C25.4328 26.6016 25.461 26.6205 25.4921 26.6334C25.5232 26.6463 25.5566 26.6529 25.5902 26.6529C25.6239 26.6529 25.6572 26.6463 25.6883 26.6334C25.7194 26.6205 25.7477 26.6016 25.7715 26.5778L27.134 25.2185C27.1578 25.1947 27.1767 25.1664 27.1896 25.1353C27.2025 25.1042 27.2091 25.0709 27.2091 25.0372C27.2091 25.0035 27.2025 24.9702 27.1896 24.9391C27.1767 24.908 27.1578 24.8798 27.134 24.856ZM16.534 15.9778C15.209 17.2997 13.4527 18.0278 11.584 18.0278C9.71523 18.0278 7.95898 17.2997 6.63398 15.9778C5.31211 14.6528 4.58398 12.8966 4.58398 11.0278C4.58398 9.15908 5.31211 7.39971 6.63398 6.07783C7.95898 4.75596 9.71523 4.02783 11.584 4.02783C13.4527 4.02783 15.2121 4.75283 16.534 6.07783C17.8559 7.40283 18.584 9.15908 18.584 11.0278C18.584 12.8966 17.8559 14.656 16.534 15.9778Z" fill="#828282" fill-opacity="0.85"/>
</svg>
