<svg width="27" height="28" viewBox="0 0 27 28" fill="none" xmlns="http://www.w3.org/2000/svg">
<path d="M13.4605 2.49316C7.04886 2.49316 1.8501 7.69193 1.8501 14.1036C1.8501 20.5152 7.04886 25.714 13.4605 25.714C19.8721 25.714 25.0709 20.5152 25.0709 14.1036C25.0709 7.69193 19.8721 2.49316 13.4605 2.49316ZM13.4605 23.7443C8.13734 23.7443 3.81972 19.4267 3.81972 14.1036C3.81972 8.78041 8.13734 4.46279 13.4605 4.46279C18.7837 4.46279 23.1013 8.78041 23.1013 14.1036C23.1013 19.4267 18.7837 23.7443 13.4605 23.7443Z" fill="black" fill-opacity="0.85"/>
<path d="M17.9882 17.3821L14.2926 14.7102V8.29594C14.2926 8.18191 14.1993 8.08861 14.0853 8.08861H12.8387C12.7247 8.08861 12.6314 8.18191 12.6314 8.29594V15.4332C12.6314 15.5006 12.6625 15.5628 12.7169 15.6017L17.0034 18.7272C17.0967 18.7945 17.2263 18.7738 17.2937 18.6831L18.0349 17.6724C18.1023 17.5765 18.0815 17.4469 17.9882 17.3821Z" fill="black" fill-opacity="0.85"/>
</svg>
