<svg width="123" height="60" viewBox="0 0 123 60" fill="none" xmlns="http://www.w3.org/2000/svg">
<g clip-path="url(#clip0_215_436)">
<path d="M44.0534 17.6398C44.4295 17.4174 44.5102 16.9075 44.259 16.5576C43.586 15.9031 42.8399 15.362 42.2096 14.5893C39.37 11.6384 35.8544 9.37929 32.2018 7.62863C29.4384 6.39259 26.4694 5.34002 23.4501 5.14567C22.6127 5.26694 22.5625 6.31796 23.2507 6.69422C27.1241 8.79626 29.0181 10.4085 31.2061 14.3623C27.9234 14.8427 24.6347 15.5968 21.5865 16.9572C21.1526 17.1671 20.5801 17.363 20.4339 17.887C20.3121 18.2881 20.504 18.7234 20.877 18.9007C22.2915 19.3142 23.8886 18.7048 25.3275 18.5493C27.6357 18.1684 29.9515 17.8528 32.2871 17.6911C33.4762 17.6149 34.7643 17.548 36.0539 17.5231C38.2327 17.4874 40.4206 17.4827 42.5948 17.6164C43.082 17.5931 43.5982 17.873 44.058 17.6398H44.0534ZM35.3581 58.1211C47.9557 57.4495 59.2333 44.929 53.2527 32.1737C46.29 18.8416 25.9837 19.8631 18.2049 31.8472C9.64052 45.2119 20.9227 59.2856 35.3581 58.1211ZM74.0448 31.16C74.0158 31.1444 73.9854 31.1273 73.958 31.1071C70.9448 29.6052 64.2623 26.9963 61.1061 27.9245C59.2942 28.8558 57.5676 30.0032 55.9674 31.2719C55.599 31.5782 55.1955 31.869 54.8575 32.2141C55.4163 33.4952 55.8167 34.8463 56.0542 36.2285C56.1836 36.1321 56.3024 36.0388 56.3983 35.9502C57.4458 35.1293 58.5116 34.3301 59.5942 33.5605C61.9237 31.7663 63.0047 31.5642 65.8702 32.0244C68.2377 32.4209 70.6129 32.9837 72.8328 33.929C73.1647 32.9604 73.5697 32.0369 74.0433 31.16H74.0448ZM102.899 21.3914C103.569 21.5422 104.441 21.1613 104.243 20.3419C104.092 19.846 103.684 19.5226 103.314 19.1914C102.753 18.6892 102.192 18.1839 101.5 17.873C99.4685 17.021 97.3019 16.5685 95.1718 16.0539C96.0046 13.9985 97.0415 12.1343 98.287 10.2593C98.8488 9.41972 99.4274 8.58481 99.9892 7.73591C100.32 7.2446 100.773 6.53097 100.269 5.99924C99.4883 5.30892 98.5123 6.25111 97.783 6.62114C94.779 8.4682 91.9653 10.6355 89.3876 13.0625C87.6976 14.7215 86.1415 16.5188 84.6022 18.3285C84.0023 19.1867 81.8311 21.1271 82.2986 22.1703C82.5985 22.8249 83.3765 22.6476 83.8973 22.4191C84.4606 22.2216 85.03 22.0506 85.5995 21.8796C88.0995 21.1333 90.6239 20.415 93.2351 20.2253C96.5056 19.9626 99.6892 20.9778 102.903 21.3914H102.899ZM93.1072 57.3189C105.533 56.5897 114.956 43.9122 109.214 31.869C102.488 18.0207 81.6104 19.0064 75.0253 32.4395C68.7919 45.5618 79.6782 58.3357 93.1072 57.3189ZM122.211 31.956C123.257 33.2123 120.627 34.2602 119.845 34.8557C117.802 36.0637 115.621 37.3448 113.691 38.6726C113.254 38.9742 112.821 39.2805 112.407 39.6117C112.39 39.6241 112.375 39.6381 112.358 39.6505C112.151 51.6284 100.513 60.3367 88.8547 58.6389C78.0369 57.35 69.7207 47.2362 72.2436 36.0435C72.2954 35.8041 72.3517 35.5662 72.4156 35.3314C72.2436 35.2661 72.0715 35.1744 71.9071 35.1137C68.9792 34.0907 66.0483 33.2278 62.9682 33.3289C61.677 33.6429 60.6691 34.6566 59.5744 35.3749C58.6365 36.0653 57.6986 36.768 56.7927 37.4972C56.6267 37.6356 56.4516 37.8097 56.2689 37.9496C56.4699 40.5974 56.0892 43.2949 55.1087 45.7623C50.8775 56.7965 37.4196 62.2257 26.6658 58.4632C16.8011 55.0831 12.4253 45.952 14.2721 37.4303C11.1874 39.7889 8.35396 42.4771 5.4474 45.0673C4.64501 45.6255 3.04175 47.7866 2.07341 47.017C0.853836 46.2225 3.76497 41.9951 4.23392 40.885C6.44924 36.6918 8.88381 32.609 11.766 28.8543C12.6765 27.6587 13.6159 26.4848 14.4488 25.2301C10.819 26.0697 7.49219 27.4363 4.12277 28.946C3.13615 29.2849 0.952803 30.9376 0.144324 29.8897C-0.559098 28.8092 1.47809 27.2264 2.10386 26.4382C3.18031 25.3374 4.2735 24.2522 5.36975 23.1732C7.74189 20.8379 10.0562 18.7017 12.6993 16.7644C14.6665 15.2656 16.8757 14.1509 18.9144 12.7656C17.8669 11.8871 16.6808 11.2015 15.5252 10.477C13.957 9.51456 12.3552 8.57237 10.6104 7.98001C9.72883 7.67527 8.84118 7.41563 7.92917 7.21817C7.40084 7.0798 6.75984 7.14821 6.32135 6.78128C5.24185 5.26228 8.07838 5.0073 8.97212 4.68702C11.9579 3.99515 14.9588 3.18978 18.0298 3.05141C24.2769 3.02808 30.7173 3.36702 36.6096 5.6603C38.9955 6.64136 41.1971 8.03909 43.2602 9.60007C44.399 10.4101 45.4176 11.5404 46.7742 11.9524C47.4106 10.0292 47.735 7.88983 48.1704 5.9386C48.3957 4.715 48.6119 3.6531 48.5587 2.47148C48.4734 1.99261 48.7749 1.44534 49.2956 1.45C50.1162 1.49664 50.1832 2.55077 50.4436 3.16179C50.8867 4.51755 51.281 5.8904 51.6388 7.26948C53.2892 13.8866 53.0609 20.7959 52.4564 27.542C52.4655 27.6804 52.4473 27.8017 52.4077 27.9074C52.6041 28.1266 52.7518 28.3692 52.7487 28.6677C53.2908 29.358 53.7734 30.0903 54.1921 30.8552C56.1836 29.1559 58.367 27.64 60.7117 26.5035C64.2136 25.4882 70.0344 27.8064 73.3642 29.187C73.7722 29.4295 74.3904 29.5772 74.7802 29.9053C74.87 29.7669 74.9614 29.627 75.0527 29.4902C74.8807 29.3751 74.7573 29.1745 74.7528 28.8916C74.9477 23.4686 76.9574 18.2508 79.695 13.6549C80.4106 12.4904 81.1932 11.3678 81.9636 10.2391C82.2864 9.77109 82.6015 9.29223 82.9746 8.86467C83.4207 8.27075 84.424 8.35315 84.5261 9.18184C84.3738 10.9201 83.8272 12.621 83.6932 14.3732C85.8522 12.4733 88.0721 10.648 90.4305 9.00926C94.1776 6.28531 98.0784 3.70752 102.491 2.26003C103.818 1.79827 105.177 1.40802 106.541 1.06908C107.364 0.815656 108.688 0.770568 108.869 1.87756C108.93 2.37664 108.589 2.82286 108.315 3.20066C107.704 4.04801 107.017 4.83316 106.373 5.65253C104.43 8.15414 102.78 10.948 101.364 13.7622C104.738 14.6608 108.19 15.1273 111.373 16.6556C113.062 17.4128 114.533 18.5664 116.007 19.6796C116.83 20.3264 118.068 21.3245 117.461 22.5077C116.53 23.7702 114.036 23.5945 112.614 23.9661C113.076 25.6375 113.794 27.2404 114.402 28.8636C115.212 30.4215 117.202 30.5319 118.688 31.0138C119.559 31.2299 120.426 31.4694 121.313 31.6155C121.626 31.6668 121.973 31.7104 122.209 31.9514L122.211 31.956Z" fill="black"/>
<path d="M73.9598 31.1066C73.9872 31.1268 74.0177 31.1439 74.0466 31.1594C73.5731 32.0348 73.1681 32.9599 72.8362 33.9285C70.6163 32.9832 68.2411 32.4204 65.8735 32.0239C63.0081 31.5637 61.927 31.7658 59.5975 33.56C58.515 34.3296 57.4492 35.1288 56.4017 35.9512C56.3073 36.0399 56.187 36.1331 56.0576 36.2295C55.82 34.8473 55.4196 33.4947 54.8608 32.2151C55.1973 31.87 55.6023 31.5792 55.9708 31.2729C57.571 30.0043 59.2976 28.8568 61.1094 27.924C64.2657 26.9958 70.9482 29.6062 73.9613 31.1066H73.9598Z" fill="#A45729"/>
<path d="M56.245 33.5441C55.6908 32.9611 56.3425 32.3283 56.8221 31.9816C57.5362 31.3426 58.2807 30.7347 59.0846 30.2169C60.4534 29.2825 62.0064 28.4554 63.6888 28.9545C65.6834 29.3945 67.8698 29.8096 69.5263 31.0845C69.7471 31.3177 69.9541 31.6131 70.0272 31.9303C69.1837 32.3376 68.2809 31.9645 67.4998 31.5913C65.8021 30.8917 64.0101 30.3413 62.2135 30.29C60.3681 30.7875 58.8654 32.1604 57.425 33.3824C57.1464 33.768 56.5998 33.9079 56.2466 33.5441H56.245Z" fill="#CF8051"/>
<path d="M104.245 20.3411C104.443 21.162 103.57 21.5414 102.9 21.3905C99.6861 20.977 96.5025 19.9617 93.232 20.2245C90.6208 20.4157 88.0949 21.1325 85.5964 21.8787C85.0269 22.0498 84.4575 22.2192 83.8942 22.4182C83.375 22.6483 82.5969 22.824 82.2955 22.1695C81.8296 21.1278 84.0007 19.1859 84.5991 18.3277C86.1384 16.5164 87.6945 14.7206 89.3845 13.0617C91.9622 10.6362 94.7759 8.46735 97.7799 6.62029C98.5107 6.25026 99.4867 5.30807 100.266 5.99839C100.77 6.53011 100.316 7.24375 99.9861 7.73506C99.4243 8.58396 98.8457 9.42042 98.2839 10.2584C97.0384 12.1319 96.0015 13.9976 95.1687 16.053C97.2988 16.5677 99.4638 17.0217 101.496 17.8721C102.191 18.1815 102.751 18.6884 103.311 19.1906C103.681 19.5217 104.089 19.8451 104.24 20.3411H104.245Z" fill="white"/>
<path d="M44.2595 16.557C44.5107 16.9068 44.4315 17.4168 44.0539 17.6391C43.5941 17.8723 43.078 17.5925 42.5908 17.6158C40.4166 17.4821 38.2286 17.4867 36.0499 17.5225C34.7587 17.5474 33.4722 17.6142 32.283 17.6904C29.9474 17.8506 27.6331 18.1662 25.3234 18.5486C23.8861 18.7041 22.2874 19.3136 20.873 18.9C20.5015 18.7228 20.3081 18.2874 20.4299 17.8863C20.5761 17.3624 21.1486 17.1665 21.5825 16.9566C24.6307 15.5961 27.9194 14.8421 31.202 14.3617C29.0141 10.4063 27.1216 8.79561 23.2467 6.69356C22.5585 6.31731 22.6087 5.26629 23.4461 5.14502C26.4669 5.33937 29.4343 6.39194 32.1978 7.62798C35.8504 9.37864 39.366 11.6377 42.2056 14.5887C42.8359 15.3614 43.5835 15.9024 44.2549 16.557H44.2595Z" fill="white"/>
<path d="M83.9329 38.6235C85.7889 37.5553 87.3571 34.8034 86.3111 32.6874C85.2392 30.761 83.2447 30.4718 81.3978 31.4265C80.5543 31.8509 79.5251 32.5101 79.5707 33.5954C78.4227 35.3491 78.6115 38.0715 80.6883 38.9811C81.7434 39.4351 82.9539 39.1443 83.9329 38.6235ZM105.023 41.195C105.501 38.2037 105.459 35.0802 104.777 32.123C104.902 31.8431 105.046 31.4622 104.807 31.2041C104.589 31.1964 104.407 31.4187 104.323 31.6084C104.258 31.6208 104.212 31.7017 104.187 31.7576C103.84 33.0916 103.076 34.3898 102.502 35.657C101.678 37.3423 100.772 39.0386 99.7934 40.6509C97.9176 43.6889 95.7753 46.5543 93.4687 49.2643C92.4029 50.5159 91.2031 51.7348 90.0505 52.918C89.6501 53.3984 88.2935 54.353 89.3227 54.8661C89.8008 54.9765 90.2957 54.821 90.7631 54.7184C91.7086 54.4774 92.648 54.2193 93.5768 53.9161C96.4011 52.9833 99.1569 51.5731 101.229 49.3622C103.312 47.1374 104.586 44.2237 105.019 41.1935L105.023 41.195ZM109.217 31.8696C114.958 43.9128 105.535 56.5903 93.1093 57.3195C79.6804 58.3363 68.7941 45.5624 75.0274 32.4402C81.611 19.007 102.488 18.0213 109.217 31.8696Z" fill="#0CB0CC"/>
<path d="M32.7047 53.5458C32.8646 53.2939 32.6484 53.0312 32.4809 52.8493C32.1444 52.4886 31.7866 52.1496 31.4501 51.7889C29.1419 49.3681 27.5311 46.3581 26.246 43.2688C26.077 42.8568 25.9171 42.4417 25.7679 42.0234C24.3535 38.0961 23.7186 33.9076 23.4673 29.7424C23.5709 29.5589 23.446 29.2992 23.2344 29.2915C23.2131 29.2713 23.1887 29.2526 23.1644 29.2355C23.1248 29.2573 23.0913 29.2899 23.0608 29.3241C22.8172 29.4951 22.6376 29.7455 22.4518 29.9771C21.4835 31.2707 20.7953 32.7586 20.2365 34.276C18.7048 38.6138 18.4033 43.9342 20.978 47.9222C22.4792 50.3818 25.1208 51.7594 27.7899 52.4917C29.183 52.9006 30.5731 53.3312 31.9922 53.6406C32.2205 53.6888 32.5418 53.8023 32.7062 53.5474L32.7047 53.5458ZM39.7526 30.2927C41.4625 30.7296 43.3535 29.0769 43.0261 27.2687C42.912 26.4836 42.1431 26.0747 41.4442 25.9441C40.3647 25.7435 39.2669 26.2737 38.4828 27.006C38.1189 27.0526 38.0443 27.5144 38.0337 27.8207C37.988 28.9043 38.6594 30.0751 39.7511 30.2927H39.7526ZM53.2547 32.1725C59.2353 44.9277 47.9577 57.4483 35.3601 58.1199C20.9247 59.2844 9.64251 45.2107 18.2069 31.846C25.9857 19.8634 46.2936 18.8403 53.2562 32.1725H53.2547Z" fill="#0CB0CC"/>
<path d="M19.9394 40.6169C19.9531 40.62 19.9652 40.6231 19.9774 40.6247C19.9637 40.6216 19.9515 40.6184 19.9394 40.6169C19.9241 40.6138 19.9089 40.6107 19.8952 40.6091C19.9104 40.6107 19.9257 40.6138 19.9394 40.6169ZM21.1605 40.0758C21.1909 40.0649 21.2198 40.0556 21.2503 40.0463C21.2198 40.0541 21.1909 40.0649 21.1605 40.0758ZM21.9187 39.9017C21.8745 39.9064 21.8289 39.9126 21.7847 39.9204C21.8304 39.9141 21.8745 39.9064 21.9187 39.9017ZM22.1577 39.8815C22.0999 39.8846 22.0435 39.8877 21.9842 39.8939C22.042 39.8877 22.0999 39.8846 22.1577 39.8815ZM22.8414 39.9157C22.8688 39.9204 22.8977 39.925 22.9251 39.9297C22.8977 39.9235 22.8688 39.9188 22.8414 39.9157C22.814 39.911 22.785 39.9079 22.7576 39.9048C22.7028 39.897 22.6465 39.8908 22.5901 39.8877C22.6465 39.8924 22.7028 39.8986 22.7576 39.9048C22.7865 39.9079 22.814 39.9126 22.8414 39.9157ZM23.1641 41.5295C23.1824 41.5373 23.2022 41.5466 23.222 41.5544C23.2037 41.5451 23.1839 41.5373 23.1641 41.5295ZM23.4976 40.0836C23.5296 40.096 23.5631 40.1085 23.595 40.1209C23.5631 40.1069 23.5311 40.096 23.4976 40.0836ZM23.8051 40.2111C23.8265 40.2204 23.8478 40.2313 23.8676 40.2422C23.8462 40.2313 23.8265 40.2204 23.8051 40.2111ZM23.9939 40.3059C24.035 40.3277 24.0762 40.351 24.1173 40.3759C24.0762 40.351 24.035 40.3293 23.9939 40.3059ZM24.3122 42.4189C24.2756 42.3691 24.236 42.3225 24.1964 42.2758C24.1782 42.2556 24.1584 42.2354 24.1386 42.2167C24.1569 42.2354 24.1766 42.2556 24.1949 42.2758C24.2345 42.3225 24.2741 42.3707 24.3106 42.4189H24.3122ZM24.5953 42.834C24.5284 42.7205 24.4553 42.6101 24.3776 42.5044C24.4538 42.6101 24.5268 42.7205 24.5953 42.834ZM24.6395 49.0251C24.6075 49.0437 24.574 49.0608 24.5421 49.0779C24.574 49.0608 24.6075 49.0422 24.6395 49.0251ZM24.5908 40.6962C24.6091 40.7117 24.6288 40.7257 24.6471 40.7413C24.6288 40.7257 24.6091 40.7102 24.5908 40.6962C24.5527 40.6666 24.5147 40.6371 24.4766 40.6091C24.5147 40.6371 24.5542 40.6666 24.5908 40.6962ZM24.7263 40.8066C24.7187 40.7988 24.7095 40.7926 24.7019 40.7864C24.7095 40.7926 24.7172 40.8004 24.7263 40.8066ZM24.7826 43.1854C24.7537 43.1247 24.7232 43.0656 24.6928 43.0066C24.7232 43.0656 24.7537 43.1247 24.7826 43.1854ZM25.1008 48.7188C25.0658 48.7452 25.0308 48.7716 24.9943 48.7965C25.0293 48.7716 25.0658 48.7452 25.1008 48.7188ZM25.2135 44.6437C25.2166 44.667 25.2196 44.6904 25.2211 44.7137C25.2181 44.6904 25.2166 44.667 25.2135 44.6437ZM25.9032 47.9196C25.888 47.9398 25.8713 47.9616 25.856 47.9803C25.8728 47.96 25.888 47.9398 25.9032 47.9196ZM26.1636 47.5309C26.1499 47.5527 26.1362 47.576 26.1225 47.5978C26.1362 47.576 26.1499 47.5527 26.1636 47.5309ZM26.6021 46.4177C26.5945 46.455 26.5853 46.4923 26.5777 46.5297C26.5671 46.5716 26.5564 46.6121 26.5442 46.6525C26.5564 46.6121 26.5671 46.5716 26.5777 46.5297C26.5853 46.4923 26.5945 46.455 26.6021 46.4162V46.4177ZM32.4776 52.8482C32.6451 53.0286 32.8613 53.2913 32.7015 53.5447C32.5385 53.7997 32.2173 53.6862 31.9874 53.638C30.5683 53.3286 29.1783 52.898 27.7851 52.4891C25.1161 51.7568 22.4744 50.3792 20.9732 47.9196C18.3985 43.9332 18.7 38.6112 20.2317 34.2735C20.7905 32.756 21.4787 31.2681 22.447 29.9745C22.6312 29.7429 22.8124 29.4926 23.056 29.3215C23.0865 29.2873 23.1215 29.2547 23.1596 29.2329C23.1839 29.25 23.2083 29.2671 23.2296 29.2889C23.4397 29.2967 23.5661 29.5579 23.4626 29.7398C23.7138 33.905 24.3487 38.0935 25.7632 42.0193C25.9139 42.4391 26.0738 42.8542 26.2412 43.2662C27.5263 46.3571 29.1371 49.3655 31.4453 51.7863C31.7818 52.147 32.1381 52.4875 32.4761 52.8467L32.4776 52.8482Z" fill="white"/>
<path d="M86.3112 32.6872C87.3572 34.8032 85.789 37.5552 83.933 38.6233C82.9524 39.1457 81.7435 39.4349 80.6884 38.9809C78.6116 38.0714 78.4228 35.349 79.5708 33.5952C79.5267 32.51 80.5544 31.8508 81.3979 31.4263C83.2432 30.4717 85.2378 30.7609 86.3112 32.6872Z" fill="white"/>
<path d="M104.778 32.1232C105.46 35.0803 105.503 38.2038 105.025 41.1952C104.591 44.2254 103.316 47.1391 101.235 49.3639C99.1627 51.5748 96.4069 52.985 93.5825 53.9178C92.6538 54.221 91.7143 54.4791 90.7688 54.7201C90.3014 54.8227 89.8066 54.9782 89.3285 54.8678C88.2992 54.3547 89.6558 53.3985 90.0563 52.9197C91.2089 51.7365 92.4086 50.5176 93.4744 49.266C95.7796 46.556 97.9233 43.6906 99.7991 40.6526C100.778 39.0403 101.683 37.3441 102.508 35.6587C103.082 34.3916 103.846 33.0933 104.193 31.7593C104.218 31.7034 104.262 31.6225 104.329 31.6101C104.411 31.4204 104.595 31.1965 104.813 31.2058C105.052 31.4639 104.907 31.8449 104.782 32.1247L104.778 32.1232Z" fill="white"/>
<path d="M43.0262 27.2705C43.352 29.0771 41.4625 30.7314 39.7527 30.2945C38.6625 30.0768 37.9911 28.9061 38.0353 27.8224C38.0459 27.5162 38.1205 27.0544 38.4844 27.0077C39.2685 26.2755 40.3648 25.7453 41.4458 25.9458C42.1431 26.0764 42.912 26.4853 43.0277 27.2705H43.0262Z" fill="white"/>
</g>
<defs>
<clipPath id="clip0_215_436">
<rect width="122.455" height="58.7281" fill="white" transform="translate(0 0.922119)"/>
</clipPath>
</defs>
</svg>
