<svg width="85" height="93" viewBox="0 0 85 93" fill="none" xmlns="http://www.w3.org/2000/svg">
<path d="M14.8229 60.3899C15.873 60.3285 16.9129 60.1727 17.8726 60.0112C16.9018 60.5104 15.8395 60.9494 14.7471 61.1836C14.7716 60.9187 14.7962 60.6537 14.8229 60.3888V60.3899Z" fill="black"/>
<path d="M17.6773 52.9503C18.6013 52.7626 19.543 52.5295 20.4447 52.3101C18.9896 53.164 17.4095 53.9851 15.7324 54.2261C15.7938 53.8918 15.8574 53.5598 15.9221 53.2266C16.5157 53.172 17.1038 53.0799 17.6773 52.9503Z" fill="black"/>
<path d="M19.5534 80.3872C19.5981 80.4123 19.6439 80.435 19.6897 80.4578C19.5098 80.6742 19.3288 80.8871 19.1455 81.0966C19.2829 80.862 19.4182 80.6252 19.5534 80.3872Z" fill="black"/>
<path d="M31.0904 75.6365C31.3538 76.2687 31.5546 76.9283 31.6997 77.5935C31.4508 77.0465 31.1663 76.5212 30.8472 76.0197C30.9297 75.8935 31.0112 75.765 31.0904 75.6365Z" fill="black"/>
<path d="M41.0529 50.2534C41.0038 50.3432 40.9547 50.4331 40.9067 50.5229C40.5686 50.3034 40.2305 50.0874 39.9058 49.8713C40.284 49.9907 40.669 50.1147 41.0529 50.2534Z" fill="black"/>
<path d="M51.3494 40.4038C51.2869 40.4164 51.2243 40.43 51.1617 40.446C51.0835 40.1715 50.9952 39.8903 50.9014 39.6033C50.9014 39.5999 50.9047 39.5988 50.907 39.601C51.0656 39.8686 51.2131 40.1362 51.3494 40.4038Z" fill="black"/>
<path d="M67.9743 56.2776C66.8216 57.1566 65.4491 57.7968 64.0164 58.089C63.9606 57.7968 63.9048 57.5068 63.8501 57.2157C65.2605 57.0884 66.6542 56.7677 67.9754 56.2776H67.9743Z" fill="black"/>
<path d="M65.23 45.0134C65.5982 44.4449 65.9218 43.816 66.2421 43.2361C65.7109 45.7764 64.1454 47.9177 62.1078 49.4073C62.0097 49.0764 61.9059 48.7466 61.7954 48.4203C63.1188 47.4878 64.2927 46.3484 65.23 45.0146V45.0134Z" fill="black"/>
<path d="M67.0255 69.7688C67.0935 69.8564 67.1638 69.9428 67.2341 70.0269C66.8213 70.301 66.3961 70.5489 65.9688 70.7672C66.3258 70.4465 66.6807 70.1145 67.0255 69.7688Z" fill="black"/>
<path d="M83.927 49.9462C83.9594 48.2746 83.9772 45.6376 81.9654 45.2214C79.506 45.5546 78.6178 49.8643 78.2038 51.9066C77.7307 54.398 77.319 56.9122 76.5033 59.3184C76.0123 60.7626 75.46 62.2522 74.4836 63.4314C74.9947 63.7043 75.4667 64.0534 75.8606 64.4833C76.7198 65.41 77.1014 66.7212 77.3926 67.9174C76.6417 66.952 76.0012 65.8774 75.0728 65.0735C74.7347 64.7801 74.3832 64.5072 73.9859 64.3002C73.8956 64.257 73.7996 64.2183 73.7159 64.1626C73.3019 64.4594 72.8924 64.6129 72.503 64.6436C73.1156 65.7955 73.3075 67.1681 73.3477 68.4644C73.3242 69.9722 72.7875 71.4641 72.041 72.7571C71.9897 72.7321 71.9395 72.7025 71.8904 72.6695C72.5867 70.1792 72.7217 67.4239 71.6058 65.053C71.4608 64.8551 71.4797 64.6448 71.5824 64.4867C71.4697 64.4378 71.3603 64.3775 71.2555 64.307C71.2432 64.3662 71.2298 64.423 71.2164 64.4753C70.895 66.5108 69.6263 68.1847 68.0496 69.4332C67.9336 69.3036 67.8231 69.1705 67.7138 69.033C69.0048 67.5808 70.0369 65.9002 70.3148 63.9306C70.3204 63.7748 70.3728 63.6122 70.4665 63.4928C70.1898 63.0755 69.9767 62.5638 69.8484 61.9895C68.8943 57.7935 69.5482 53.4451 69.2358 49.1877C68.8419 42.0294 65.9061 34.256 58.7234 31.7907C54.7052 30.4978 50.3009 31.5291 46.7124 33.5919C38.5287 38.5623 33.9359 48.527 31.1786 57.4785C30.4165 59.9848 29.786 62.5297 29.0719 65.0496C28.5943 66.7109 28.0609 68.3893 27.1314 69.8517C26.9551 70.1292 26.7509 70.3884 26.5267 70.6204C27.2999 71.048 28.0219 71.5676 28.668 72.176C29.4491 72.856 30.0862 73.6782 30.5839 74.581C30.4745 74.7721 30.3607 74.9608 30.2435 75.1473C29.0607 73.5747 27.5365 72.2874 25.8025 71.3675C25.7578 71.3493 25.7188 71.3277 25.6842 71.3027C25.1118 71.6541 24.4858 71.8326 23.8921 71.7507C23.8665 71.9292 23.8386 72.1078 23.8073 72.2874C23.3833 75.0188 22.0075 77.4807 20.3404 79.6401C20.2411 79.5947 20.1429 79.5469 20.0458 79.4957C21.4295 76.952 22.5977 74.2604 22.9526 71.3652C22.6268 71.1241 22.3299 70.7694 22.0833 70.2793C21.8724 69.8073 21.743 69.3059 21.6537 68.7953C21.5265 68.8942 21.4083 68.9818 21.3179 69.05C19.4343 70.5283 17.0587 70.6431 14.7623 70.5249C14.7455 70.41 14.7299 70.294 14.7165 70.1792C17.1401 69.7539 19.7613 69.4241 21.4998 67.5479C21.4339 62.35 23.2148 57.3546 24.4166 52.3603C25.6184 47.7515 26.4843 43.0847 27.1459 38.3827C26.8012 38.3872 26.4508 38.3667 26.1272 38.3861C25.1017 38.3952 24.0785 38.3997 23.053 38.3861C22.8388 38.3747 22.6201 38.4054 22.4136 38.3326C22.2541 38.2689 22.1458 38.1257 22.1135 37.9676C21.9941 37.979 21.8702 37.946 21.772 37.8687C21.541 37.6844 21.5533 37.3456 21.4373 37.092C20.982 35.8105 20.5133 34.5357 20.0447 33.2599C20.4163 30.5467 20.6919 27.8187 20.963 25.0952C22.5576 24.9486 24.1521 24.8007 25.7467 24.6506C26.703 24.571 27.6581 24.4869 28.6144 24.4084C28.6579 23.5158 28.6814 22.6231 28.6791 21.7327C26.1952 22.017 23.7047 22.2342 21.2096 22.3923C21.2219 22.2467 21.2342 22.1 21.2465 21.9556C21.2465 21.5997 21.377 21.2244 21.2532 20.8822C21.1036 20.5183 20.6093 20.5024 20.414 20.8264C20.3415 21.3666 20.2768 21.909 20.2188 22.4525C17.2283 22.622 14.2322 22.705 11.2373 22.7141C11.0297 23.8171 10.878 24.9235 10.7686 26.0334C13.8283 25.7491 16.8891 25.4705 19.9487 25.1896C19.7668 27.1625 19.5961 29.1423 19.3216 31.0993C19.1687 32.6276 18.9545 34.1446 18.6979 35.6524C18.4959 36.0868 18.2939 36.5212 18.0953 36.9555C17.8587 37.341 17.7974 38.0085 17.293 38.1109C17.1903 38.1222 17.0843 38.1018 16.994 38.0495C15.5623 38.2837 14.0861 38.2985 12.6366 38.3269C12.1701 38.4054 11.841 38.0722 11.8834 37.7515C11.7896 37.6617 11.7193 37.54 11.6669 37.4172C11.4727 37.0522 11.2797 36.6861 11.0878 36.3188C10.8947 35.9503 10.7073 35.5796 10.5254 35.2066C10.5611 38.4611 10.6146 41.719 10.3234 44.9576C10.8099 45.1327 10.6425 45.6649 10.5477 46.0538C10.3 47.3069 10.0757 48.5645 9.81458 49.8143C9.64832 50.5796 9.48541 51.3437 9.32807 52.1079C9.33477 52.1113 9.34258 52.1158 9.34927 52.1192C11.0588 52.9402 12.9881 53.3121 14.8973 53.2814C14.8314 53.6202 14.7678 53.958 14.7053 54.2968C14.6518 54.2968 14.5993 54.2946 14.5458 54.2934C13.0293 54.2354 11.5017 54.0103 10.059 53.5202C9.82686 53.4087 9.43296 53.3075 9.11495 53.1495C8.76903 54.8847 8.45325 56.62 8.18544 58.3632C8.29926 58.3666 8.41531 58.4155 8.51127 58.5258C9.92505 59.9746 11.8599 60.4101 13.8406 60.418C13.816 60.6887 13.7926 60.9582 13.7714 61.2288L13.7625 61.3346C13.1353 61.3903 12.5027 61.3687 11.8778 61.2413C10.4763 60.9911 9.05246 60.4828 8.02141 59.4572C7.74803 61.3835 7.53714 63.3211 7.41216 65.2804C6.99483 71.0184 7.02384 77.0589 9.72085 82.2703C12.2103 87.0622 17.081 90.8807 22.542 90.8079C30.152 90.8557 34.6902 84.233 36.8728 77.5467C39.3623 70.0336 40.3219 61.6154 44.9147 55.0701C44.8288 54.8393 44.7284 54.613 44.6224 54.3912C44.0209 52.9971 42.9877 51.8793 41.7357 51.0719C41.8171 50.9207 41.8986 50.7706 41.9812 50.6205C43.2242 51.1663 44.3624 51.9214 45.0676 53.1392C45.264 53.4599 45.4448 53.7942 45.6021 54.1399C45.8398 53.834 46.0875 53.5316 46.3452 53.2359C47.5135 51.9714 48.9262 50.741 50.5408 50.1042C50.6669 49.845 50.8633 49.5766 50.9035 49.3253C51.843 46.3449 52.0394 44.1252 51.4179 41.4279C51.5429 41.4029 51.669 41.379 51.7939 41.3597C52.7324 43.6146 52.912 45.9219 52.1823 48.4577C52.1008 48.7033 51.9847 49.232 51.8151 49.7403C52.0896 49.6926 52.3697 49.6642 52.6543 49.6562C54.0692 49.729 55.1727 50.1611 56.0386 50.8468C56.7985 50.8218 57.5484 50.5261 58.2558 50.301C59.1864 49.9428 60.0892 49.5015 60.9405 48.9785C61.0488 49.3094 61.1503 49.6426 61.2463 49.978C60.9127 50.1804 60.5701 50.3658 60.2197 50.5341C59.1775 51.0287 58.0751 51.5222 56.9324 51.7372C57.9947 53.0562 58.5694 54.8711 58.9164 56.8076C58.9398 56.819 58.9622 56.8304 58.9845 56.8452C60.2465 57.167 61.5509 57.3023 62.8509 57.2704C62.9111 57.59 62.9736 57.9084 63.035 58.229C62.7538 58.2541 62.4704 58.2654 62.1881 58.2609C61.5543 58.2325 60.0825 58.1915 59.0916 57.9288C59.3973 60.1451 59.4766 62.4217 59.7042 64.2217C60.0813 68.4041 61.4962 72.8708 65.0815 75.2997C68.2237 77.5114 71.9729 76.1139 74.6499 73.8112C74.9578 73.6804 75.2312 73.4848 75.4098 73.2097C75.3785 73.2062 75.3484 73.2017 75.3171 73.1971C75.4354 73.0812 75.5515 72.9629 75.6642 72.8435C79.9323 68.3768 81.981 62.2625 83.2486 56.2891C83.6726 54.2013 83.8668 52.0692 83.927 49.9439V49.9462ZM84.745 47.2045C84.9837 48.4338 84.9279 49.6983 84.8755 50.9412C84.7427 54.3457 84.0777 57.7048 83.1035 60.9593C81.2635 67.0589 78.186 73.5383 72.3434 76.5267C67.514 78.967 63.0015 76.1776 60.6716 71.687C58.9008 68.2142 58.6877 64.2456 58.3641 60.4192C58.1186 57.8856 57.9278 55.1827 56.5575 52.9789C53.827 48.751 49.4719 51.0731 46.8809 54.1342C46.5762 54.5004 46.285 54.8734 46.0071 55.252C46.0641 55.4681 46.1221 55.6955 46.0105 55.9036C45.9056 56.1151 45.6199 56.2027 45.4057 56.1163C40.5306 63.4485 40.092 72.889 36.6385 80.9171C33.9192 87.1782 28.9592 92.1827 21.8267 91.8007C15.5311 91.5255 10.1415 86.5823 7.96451 80.7443C6.00396 75.8558 6.06756 70.4737 6.42352 65.2918C6.74488 59.6562 7.8797 54.124 9.05023 48.6203C9.26001 45.3328 9.626 42.1215 9.57468 38.8443C9.5691 36.8839 9.51888 34.9167 9.50884 32.9517C8.69873 31.0481 7.84399 29.1628 7.03612 27.2569C6.90222 26.9419 7.14547 26.5417 7.49139 26.5587C7.50812 26.5587 7.52375 26.5587 7.53937 26.5621C7.74134 26.3973 7.99575 26.3188 8.25351 26.2926C8.75564 26.2312 9.25889 26.1789 9.76325 26.1278C9.85475 25.1999 9.9775 24.2731 10.1404 23.3497C10.1739 23.1371 10.2096 22.9256 10.2475 22.7129C8.42535 22.7095 6.60317 22.6766 4.78322 22.6197C3.30137 22.5094 1.68339 22.6072 0.338794 21.8794C0.114508 21.71 -0.0327839 21.453 0.00627086 21.1619C0.152447 20.4307 1.0362 20.2943 1.62872 20.1066C4.39379 19.438 7.19011 18.7375 10.0299 18.5192C9.91278 18.2656 10.0366 17.9529 10.1605 17.7096C10.4729 16.9681 10.7709 16.2199 11.0811 15.4774C12.3319 12.4662 13.6397 9.47784 14.9564 6.49514C15.3838 5.53312 15.81 4.57111 16.2419 3.61023C16.6213 2.93818 16.8868 1.59068 17.7025 1.40988C18.8039 1.32914 19.4321 2.77557 20.0402 3.5204C20.3906 4.02528 20.732 4.53586 21.0601 5.05553C21.955 4.05144 22.6614 2.88247 23.4402 1.78399C23.7114 1.41897 23.9189 0.906126 24.3719 0.748065C25.4867 0.506992 26.0234 2.40373 26.4619 3.17926C27.146 4.64616 27.7931 6.13012 28.4314 7.61635C29.7425 10.6821 30.9309 13.8024 32.0278 16.9522C33.1615 17.0011 34.2941 17.1001 35.42 17.2285C36.4454 17.3741 37.5189 17.4719 38.4618 17.9404C39.5698 18.4362 39.533 19.645 38.4249 20.1146C36.875 20.6866 35.1845 20.7821 33.5688 21.0812C32.2699 21.279 30.9677 21.4564 29.6622 21.6145C29.6667 22.5185 29.6443 23.4237 29.6019 24.3277C30.5303 24.2549 31.4587 24.1912 32.3871 24.1435C32.6069 24.1548 32.829 24.1833 33.0477 24.2333C33.1581 24.1503 33.3032 24.1264 33.4951 24.1969C33.6279 24.2538 33.715 24.3561 33.7574 24.4755C33.7931 24.4937 33.8288 24.5108 33.8645 24.5301C33.8377 24.5483 33.8109 24.5676 33.7841 24.5858C33.802 24.7063 33.7808 24.8348 33.7239 24.9508C33.0689 26.9033 32.3447 28.8296 31.6529 30.7673C30.9778 32.6879 30.277 34.5971 29.5506 36.4973C29.4602 36.7656 29.3531 37.0454 29.2103 37.2967C29.2772 37.3933 29.3096 37.5127 29.2906 37.6401C29.2025 38.1041 28.7472 38.1063 28.3321 38.1302C28.283 38.1586 28.2339 38.1837 28.1826 38.2064C27.272 44.7506 25.8449 51.2107 24.0763 57.5718C23.5462 59.6368 23.0865 61.6007 22.7595 63.6646C22.5185 65.3725 22.302 67.126 22.6669 68.8306C22.7484 69.3752 22.9872 70.0245 23.3945 70.4191C23.5674 70.3793 23.7582 70.4259 23.8799 70.5897C23.9211 70.6375 23.9479 70.6932 23.9647 70.75C24.1164 70.7887 24.2804 70.7955 24.459 70.7637C26.8993 69.9734 27.6168 66.3061 28.312 64.0932C29.6566 59.025 31.057 53.9523 33.1671 49.1502C35.7168 43.5361 39.071 38.0699 43.9473 34.2651C49.4518 29.9099 57.5673 28.402 63.2771 33.1894C68.1244 37.0488 69.9365 43.5487 70.2467 49.5789C70.596 52.5445 69.469 62.1033 71.9395 63.5736C73.8498 64.066 75.0114 60.5124 75.5303 59.1081C76.9195 55.2702 76.9106 51.0822 78.4973 47.3285C79.2059 45.724 80.7893 43.6317 82.7342 44.3879C83.8623 44.8518 84.5129 46.0356 84.7427 47.2034L84.745 47.2045Z" fill="black"/>
<path d="M17.3122 23.8574C18.1502 24.1758 17.6626 25.0991 16.8603 24.7887C15.6731 24.5408 14.5527 24.2849 13.3521 24.1849C12.9169 24.1394 12.1793 24.3111 12.1548 23.6618C12.1548 23.3866 12.3791 23.1615 12.648 23.1592C14.228 23.1626 15.7713 23.5447 17.3122 23.8585V23.8574Z" fill="black"/>
<path d="M23.0735 24.0527C22.9195 23.9469 22.8615 23.7252 22.9084 23.5489C22.9954 23.201 23.3726 23.1441 23.6571 23.0361C24.7451 22.6847 25.8609 22.4277 26.9857 22.2355C27.326 22.181 27.7534 22.2924 27.9609 22.5903C27.9676 22.7154 27.8382 22.8337 27.7556 22.9178C27.3885 23.2817 26.7369 23.2703 26.3028 23.3829C25.4626 23.558 24.6223 23.7604 23.81 24.0424C23.5667 24.1448 23.3067 24.2312 23.0724 24.0515L23.0735 24.0527Z" fill="black"/>
<path d="M17.7906 40.3142C17.7192 40.6451 17.6467 40.976 17.5742 41.3069C16.5621 41.2125 15.656 41.0499 14.7075 40.7838C14.375 40.6519 13.9521 40.6576 13.6999 40.379C13.5013 40.1266 13.614 39.7536 13.8941 39.6262C14.0916 39.5364 14.2902 39.6126 14.4844 39.6717C14.9832 39.8241 15.5388 39.9753 16.0443 40.0777C16.6223 40.1903 17.2059 40.2687 17.7906 40.3153V40.3142Z" fill="black"/>
<path d="M23.6978 40.0793C24.3517 41.2574 20.4306 41.3859 18.5771 41.3552C18.6508 41.0243 18.7233 40.6945 18.7959 40.3636C19.9943 40.3852 21.1927 40.2829 22.3599 40.0816C22.7984 40.0213 23.3329 39.662 23.6978 40.0793Z" fill="black"/>
<path d="M28.1313 30.9879C27.9818 31.3029 27.8323 31.619 27.6816 31.934C27.3993 32.5287 27.1058 33.1166 26.8224 33.7102C26.9608 33.7329 27.1014 33.7568 27.2409 33.775C27.7017 32.9187 27.8602 31.9192 28.1324 30.989L28.1313 30.9879ZM29.8698 26.1699C30.0015 26.3256 30.1834 26.4712 30.2146 26.685C29.8118 28.6795 29.2137 30.6661 28.706 32.6481C28.4348 33.5464 28.1335 35.0918 26.8916 34.7382C26.3794 34.6381 25.3741 34.7075 25.6452 33.8796C25.9297 33.2804 26.2243 32.6868 26.5111 32.0886C27.3759 30.2863 28.2228 28.4748 29.0474 26.6531C29.1579 26.3381 29.5306 25.964 29.8698 26.1699Z" fill="#00FF53"/>
<path d="M26.619 34.1515C26.3423 33.7808 26.6848 33.3532 26.8042 32.9859C27.2082 32.0921 27.4615 30.988 28.3731 30.4888C28.69 31.4963 28.0819 32.4264 27.7326 33.3316C27.5474 33.6636 27.5306 34.2027 27.1122 34.3186C26.9325 34.3607 26.7339 34.3084 26.6201 34.1503L26.619 34.1515Z" fill="#00FF53"/>
<path d="M10.9502 29.6303C10.6389 29.4325 10.4381 29.0504 10.5262 28.6774C10.5999 28.3556 11.0094 28.2055 11.2716 28.3909C11.5684 28.2055 11.9779 28.2976 12.1844 28.5796C12.7256 29.3597 11.6209 30.1307 10.9502 29.6303Z" fill="#00FF53"/>
<path d="M11.6054 30.2519C9.67392 29.8676 9.9049 26.8565 11.9659 27.0009C12.9132 27.0407 13.7613 28.0038 13.5136 28.9784C13.3071 29.8107 12.4624 30.4964 11.6054 30.2519ZM11.9357 29.2751H11.9436C11.9781 29.266 12.0116 29.257 12.0451 29.2467C11.9681 29.183 11.9067 29.0989 11.8587 29.0182C11.8275 28.9715 11.7951 28.9215 11.7661 28.8692C11.7394 28.9022 11.7092 28.9295 11.6757 28.9556C11.6568 29.1159 11.7594 29.3013 11.9346 29.2751H11.9357Z" fill="#00FF53"/>
<path d="M17.8723 60.0113C16.9137 60.1728 15.8738 60.3274 14.8226 60.3899C14.7959 60.6538 14.7702 60.9199 14.7468 61.1848C15.8392 60.9506 16.9015 60.5105 17.8723 60.0124V60.0113ZM20.4432 52.3106C19.5416 52.5301 18.6009 52.7632 17.6759 52.9508C17.1023 53.0804 16.5143 53.1726 15.9206 53.2271C15.8559 53.5603 15.7923 53.8935 15.7309 54.2267C17.4081 53.9856 18.987 53.1646 20.4432 52.3106ZM18.5775 41.3555C20.4309 41.3862 24.352 41.2577 23.6981 40.0796C23.3343 39.6623 22.7987 40.0216 22.3602 40.0819C21.193 40.2831 19.9946 40.3855 18.7962 40.3639C18.7236 40.6948 18.6511 41.0246 18.5775 41.3555ZM27.7553 22.918C27.8379 22.8338 27.9673 22.7144 27.9606 22.5905C27.7531 22.2925 27.3257 22.1811 26.9854 22.2357C25.8606 22.4279 24.7448 22.686 23.6568 23.0362C23.3723 23.1443 22.9951 23.2011 22.9081 23.5491C22.8612 23.7253 22.9192 23.9471 23.0732 24.0528C23.3076 24.2325 23.5675 24.1449 23.8108 24.0437C24.6231 23.7606 25.4634 23.5582 26.3036 23.3842C26.7377 23.2716 27.3893 23.2819 27.7564 22.9191L27.7553 22.918ZM40.9056 50.523C40.9536 50.4332 41.0027 50.3434 41.0518 50.2535C40.6679 50.1148 40.2841 49.9909 39.9047 49.8715C40.2283 50.0875 40.5664 50.3024 40.9056 50.523ZM51.1602 40.4446C51.2227 40.4287 51.2852 40.4151 51.3477 40.4025C51.2105 40.1353 51.0632 39.8681 50.9058 39.6009C50.9036 39.5975 50.8991 39.6009 50.9003 39.6031C50.9951 39.8897 51.0821 40.1706 51.1602 40.4446ZM64.0137 58.0895C65.4465 57.7973 66.819 57.1571 67.9716 56.2781C66.6516 56.7682 65.2579 57.0888 63.8463 57.2162C63.901 57.5073 63.9568 57.7973 64.0126 58.0895H64.0137ZM66.2409 43.2363C65.9207 43.8162 65.5971 44.4451 65.2289 45.0136C64.2916 46.3475 63.1177 47.488 61.7943 48.4193C61.9036 48.7457 62.0085 49.0755 62.1067 49.4064C64.1443 47.9179 65.7098 45.7755 66.2409 43.2351V43.2363ZM81.9644 45.2217C83.9762 45.6379 83.9573 48.2749 83.926 49.9465C83.8658 52.0729 83.6716 54.2039 83.2476 56.2917C81.98 62.2651 79.9324 68.3795 75.6632 72.8461C75.5505 72.9655 75.4344 73.0838 75.3161 73.1998C75.3474 73.2043 75.3775 73.2089 75.4088 73.2123C75.2302 73.4875 74.9568 73.683 74.6489 73.8138C74.3643 73.9332 74.0519 73.998 73.7595 74.0174C72.2074 74.1822 71.2723 73.5398 70.1174 72.605C69.1209 71.8022 68.0631 71.0153 67.2318 70.0283C67.1604 69.9441 67.0912 69.8577 67.0232 69.7702C66.8759 69.5791 66.7364 69.3801 66.6081 69.172C64.6263 65.838 63.7727 62.0342 63.0351 58.2328C62.9737 57.9121 62.9112 57.5937 62.851 57.2742C62.6635 56.2917 62.4783 55.3115 62.2774 54.3427C61.9695 52.8928 61.6581 51.4202 61.2453 49.9818C61.1504 49.6463 61.0478 49.3131 60.9395 48.9822C60.4787 47.5733 59.8962 46.211 59.1017 44.9579C57.1657 41.9388 54.5446 40.9279 51.7929 41.3646C51.668 41.3828 51.5419 41.4066 51.4169 41.4328C50.0198 41.7182 48.596 42.3675 47.2146 43.3056C45.2061 44.6554 44.1137 46.8717 42.9297 48.9219C42.6106 49.4871 42.2937 50.0557 41.9813 50.6265C41.8987 50.7766 41.8161 50.9267 41.7358 51.078C41.4937 51.5214 41.2571 51.9683 41.0228 52.4152C38.2889 57.646 36.4411 63.2862 34.2987 68.782C33.4674 70.946 32.4497 73.4499 31.0895 75.6389C31.0103 75.7674 30.9299 75.8948 30.8462 76.0221C28.8489 79.0958 26.1351 81.4519 22.2631 81.1824C21.3537 81.1199 20.4867 80.8618 19.6866 80.4604C19.6409 80.4376 19.5951 80.4137 19.5505 80.3899C18.3967 79.7826 17.3869 78.8775 16.5879 77.829C14.932 75.6821 14.113 73.1338 13.7548 70.4661C13.7503 70.4331 13.7458 70.399 13.7425 70.366C13.3519 67.3742 13.5349 64.2357 13.7615 61.3395L13.7704 61.2337C13.7916 60.9631 13.815 60.6924 13.8396 60.4229C14.0293 58.3647 14.3328 56.3258 14.7044 54.3006C14.7668 53.9617 14.8304 53.624 14.8963 53.2851C15.6751 49.2745 16.6883 45.3047 17.5732 41.3111C17.6469 40.9802 17.7183 40.6493 17.7897 40.3184C18.1233 38.7696 18.4324 37.2163 18.698 35.655C18.9546 34.146 19.1678 32.6302 19.3217 31.1019C19.5962 29.1449 19.767 27.1652 19.9488 25.1922C20.0314 24.2768 20.1185 23.3637 20.2189 22.4552C20.278 21.9116 20.3427 21.3692 20.4142 20.8291C20.6094 20.505 21.1038 20.522 21.2533 20.8848C21.3771 21.2271 21.2466 21.6023 21.2466 21.9582C21.2354 22.1038 21.222 22.2505 21.2098 22.3949C23.7048 22.238 26.1954 22.0208 28.6792 21.7354C28.6815 22.6257 28.658 23.5184 28.6145 24.411C27.6582 24.4895 26.7031 24.5736 25.7468 24.6532C24.1522 24.8033 22.5577 24.9523 20.9632 25.0979C20.692 27.8213 20.4153 30.5493 20.0448 33.2625C20.5135 34.5383 20.9821 35.8131 21.4374 37.0946C21.5534 37.3482 21.54 37.6871 21.7721 37.8713C21.8703 37.9486 21.9942 37.9816 22.1136 37.9702C22.146 38.1283 22.2542 38.2716 22.4138 38.3352C22.6202 38.4091 22.8389 38.3773 23.0531 38.3887C24.0786 38.4012 25.1018 38.3966 26.1273 38.3887C26.4509 38.3705 26.8013 38.391 27.1461 38.3853C26.4844 43.0873 25.6185 47.753 24.4167 52.3629C23.2149 57.3583 21.4352 62.3538 21.4999 67.5505C19.7614 69.4268 17.1403 69.7565 14.7166 70.1818C14.7311 70.2967 14.7468 70.4126 14.7624 70.5275C17.0588 70.6458 19.4344 70.5309 21.318 69.0526C21.4073 68.9844 21.5267 68.898 21.6539 68.7979C21.7431 69.3085 21.8726 69.81 22.0835 70.2819C22.3301 70.772 22.6269 71.1279 22.9527 71.3678C22.5979 74.263 21.4296 76.9546 20.0459 79.4983C20.143 79.5495 20.2412 79.5973 20.3405 79.6428C22.0076 77.4845 23.3834 75.0214 23.8075 72.2901C23.8387 72.1115 23.8666 71.933 23.8923 71.7533C24.4859 71.8352 25.1119 71.6567 25.6843 71.3053C25.7189 71.3303 25.7591 71.3519 25.8026 71.3701C27.5366 72.2889 29.0609 73.5773 30.2437 75.1499C30.3608 74.9635 30.4735 74.7747 30.584 74.5836C30.0852 73.6796 29.4492 72.8575 28.6681 72.1786C28.0209 71.5702 27.3001 71.0506 26.5268 70.623C26.7511 70.391 26.9553 70.1318 27.1316 69.8543C28.0611 68.392 28.5933 66.7135 29.072 65.0522C29.7862 62.5323 30.4166 59.9874 31.1787 57.4812C33.936 48.5308 38.53 38.5661 46.7125 33.5945C50.301 31.5318 54.7064 30.5004 58.7235 31.7933C65.9062 34.2586 68.842 42.0321 69.2359 49.1903C69.5494 53.4466 68.8944 57.7961 69.8485 61.9922C69.9768 62.5664 70.1899 63.0781 70.4667 63.4955C70.3718 63.6149 70.3205 63.7775 70.3149 63.9333C70.0359 65.9028 69.0038 67.5835 67.7139 69.0356C67.8232 69.172 67.9337 69.3062 68.0497 69.4358C69.6264 68.1873 70.8963 66.5134 71.2165 64.4779C71.2288 64.4256 71.2422 64.3688 71.2556 64.3096C71.3605 64.3801 71.4698 64.4404 71.5825 64.4893C71.4799 64.6462 71.4598 64.8566 71.6059 65.0556C72.7218 67.4265 72.5857 70.1829 71.8905 72.6721C71.9396 72.7051 71.9898 72.7335 72.0411 72.7597C72.7876 71.4656 73.3243 69.9748 73.3478 68.467C73.3076 67.1707 73.1157 65.7982 72.5031 64.6462C72.8925 64.6144 73.302 64.462 73.716 64.1652C73.7997 64.2209 73.8957 64.2596 73.986 64.3028C74.3833 64.5086 74.7348 64.7816 75.0729 65.0761C76.0013 65.88 76.6418 66.9546 77.3927 67.92C77.1015 66.7238 76.7199 65.4127 75.8607 64.4859C75.4668 64.0561 74.9948 63.707 74.4837 63.4341C75.4612 62.2548 76.0135 60.7641 76.5034 59.321C77.3202 56.916 77.7308 54.4018 78.204 51.9092C78.6179 49.8658 79.5061 45.5572 81.9655 45.224L81.9644 45.2217Z" fill="#FE87D7"/>
<path d="M44.6243 54.3953C44.7303 54.617 44.8308 54.8433 44.9167 55.0742C40.3239 61.6195 39.3642 70.0389 36.8748 77.5508C34.6922 84.2371 30.1529 90.8598 22.5439 90.812C17.083 90.8848 12.2123 87.0663 9.72282 82.2744C7.02581 77.0618 6.9968 71.0213 7.41412 65.2845C7.5391 63.3252 7.74999 61.3875 8.02338 59.4612C9.05331 60.4869 10.4782 60.9941 11.8798 61.2454C12.5046 61.3728 13.1362 61.3944 13.7644 61.3386C13.5379 64.2349 13.3549 67.3745 13.7455 70.3652C13.7488 70.3982 13.7533 70.4323 13.7577 70.4653C14.1159 73.1341 14.9349 75.6813 16.5909 77.8282C17.3898 78.8767 18.3997 79.7818 19.5534 80.389C19.4184 80.6267 19.2823 80.8621 19.1462 81.0975C19.3292 80.8882 19.5099 80.6756 19.6896 80.4596C20.4896 80.861 21.3555 81.1191 22.2661 81.1816C26.1381 81.4511 28.8518 79.095 30.8492 76.0213C31.1683 76.5228 31.4529 77.0481 31.7017 77.5951C31.5566 76.9299 31.3558 76.2715 31.0924 75.6381C32.4527 73.4491 33.4703 70.944 34.3016 68.7812C36.444 63.2866 38.2919 57.6452 41.0257 52.4144C41.2601 51.9664 41.4966 51.5206 41.7387 51.0771C42.9907 51.8857 44.024 53.0035 44.6255 54.3964L44.6243 54.3953Z" fill="#F7A6F3"/>
<path d="M14.5478 54.2944C14.6014 54.2944 14.6538 54.2978 14.7074 54.2978C14.3358 56.3231 14.0323 58.3608 13.8426 60.4202C11.862 60.4122 9.92711 59.9767 8.51333 58.528C8.41736 58.4165 8.30132 58.3676 8.1875 58.3654C8.4553 56.6233 8.77109 54.888 9.117 53.1516C9.43502 53.3085 9.8278 53.4097 10.061 53.5223C11.5038 54.0124 13.0325 54.2376 14.5478 54.2956V54.2944Z" fill="#F7A6F3"/>
<path d="M18.097 36.9559C18.2956 36.5204 18.4964 36.0872 18.6995 35.6528C18.4339 37.2141 18.1248 38.7674 17.7912 40.3162C17.2065 40.2696 16.6229 40.1911 16.0449 40.0785C15.5394 39.9762 14.9837 39.8249 14.485 39.6726C14.2908 39.6134 14.0922 39.5384 13.8947 39.6271C13.6157 39.7544 13.5019 40.1274 13.7005 40.3799C13.9527 40.6573 14.3756 40.6528 14.7081 40.7847C15.6566 41.0508 16.5627 41.2134 17.5747 41.3078C16.6899 45.3014 15.6767 49.27 14.8978 53.2818C12.9886 53.3125 11.0593 52.9406 9.34981 52.1196C9.34312 52.1162 9.33531 52.1117 9.32861 52.1082C9.48706 51.3441 9.64886 50.5799 9.81512 49.8147C10.0762 48.5638 10.3005 47.3073 10.5482 46.0541C10.6431 45.6652 10.8105 45.1331 10.324 44.958C10.6152 41.7194 10.5605 38.4615 10.5259 35.207C10.7078 35.58 10.8964 35.9507 11.0883 36.3191C11.2802 36.6853 11.4733 37.0515 11.6674 37.4176C11.721 37.5404 11.7913 37.6621 11.8839 37.7519C11.8426 38.0726 12.1707 38.4058 12.6371 38.3273C14.0866 38.2989 15.5629 38.2853 16.9945 38.0499C17.0838 38.1022 17.1898 38.1226 17.2935 38.1113C17.799 38.0089 17.8593 37.3426 18.0958 36.9559H18.097Z" fill="#F7A6F3"/>
<path d="M16.8616 24.7885C17.6639 25.0989 18.1526 24.1756 17.3135 23.8572C15.7736 23.5433 14.2293 23.1612 12.6492 23.1578C12.3803 23.1601 12.156 23.3852 12.156 23.6604C12.1806 24.3097 12.9182 24.1392 13.3533 24.1835C14.554 24.2836 15.6743 24.5406 16.8616 24.7873V24.7885ZM20.2192 22.4517C20.1187 23.3602 20.0317 24.2733 19.9491 25.1887C16.8895 25.4696 13.8287 25.7471 10.769 26.0325C10.8784 24.9227 11.0302 23.8162 11.2377 22.7132C14.2326 22.7041 17.2287 22.6211 20.2192 22.4517Z" fill="#F7A6F3"/>
<path d="M51.4192 41.4308C52.0407 44.1292 51.8443 46.3489 50.9047 49.3282C50.8657 49.5795 50.6682 49.8479 50.5421 50.1072C48.9275 50.744 47.5148 51.9732 46.3465 53.2388C46.0887 53.5356 45.841 53.837 45.6034 54.1428C45.446 53.7972 45.2664 53.4628 45.0689 53.1422C44.3648 51.9254 43.2266 51.1704 41.9824 50.6234C42.2949 50.0526 42.6118 49.4851 42.9309 48.9188C44.1148 46.8686 45.2072 44.6523 47.2158 43.3025C48.5972 42.3644 50.021 41.7151 51.418 41.4297L51.4192 41.4308Z" fill="#F7A6F3"/>
<path d="M59.1032 44.956C59.8988 46.2102 60.4802 47.5714 60.941 48.9803C60.0885 49.5022 59.1869 49.9434 58.2563 50.3028C57.55 50.5279 56.799 50.8247 56.0391 50.8486C55.1732 50.1629 54.0696 49.7308 52.6548 49.658C52.3702 49.666 52.0901 49.6944 51.8156 49.7421C51.9852 49.2338 52.1013 48.7051 52.1828 48.4595C52.9125 45.9237 52.7329 43.6164 51.7944 41.3615C54.5472 40.926 57.1672 41.9357 59.1032 44.9548V44.956Z" fill="#F7A6F3"/>
<path d="M62.8535 57.2727C61.5536 57.3056 60.2491 57.1692 58.9871 56.8474C58.9648 56.8326 58.9414 56.8212 58.919 56.8099C58.5709 54.8733 57.9962 53.0584 56.9351 51.7394C58.0777 51.5245 59.1801 51.0309 60.2223 50.5363C60.5727 50.368 60.9153 50.1826 61.2489 49.9802C61.6618 51.4176 61.9742 52.8913 62.2811 54.3411C62.4819 55.31 62.6672 56.2902 62.8546 57.2727H62.8535Z" fill="#F7A6F3"/>
<path d="M73.7617 74.017C74.0541 73.9989 74.3665 73.934 74.6511 73.8135C71.9741 76.1162 68.2249 77.5137 65.0826 75.302C61.4985 72.8731 60.0825 68.4064 59.7054 64.2241C59.4766 62.424 59.3974 60.1474 59.0928 57.9312C60.0836 58.1938 61.5555 58.2348 62.1893 58.2632C62.4716 58.2666 62.755 58.2564 63.0362 58.2314C63.7738 62.0328 64.6274 65.8365 66.6091 69.1706C66.7375 69.3787 66.8769 69.5777 67.0242 69.7687C66.6805 70.1155 66.3257 70.4476 65.9675 70.7671C66.3949 70.5477 66.82 70.3009 67.2329 70.0268C68.0642 71.0139 69.122 71.8019 70.1185 72.6036C71.2734 73.5383 72.2085 74.1808 73.7606 74.0159L73.7617 74.017Z" fill="#F7A6F3"/>
<path d="M28.6155 24.4084C28.659 23.5158 28.6825 22.6231 28.6802 21.7327C22.8923 22.3957 17.0643 22.6959 11.2384 22.7129C11.0309 23.816 10.8791 24.9224 10.7697 26.0322C15.7632 25.5672 20.7566 25.1214 25.7489 24.6506C26.7052 24.571 27.6604 24.4869 28.6166 24.4084H28.6155ZM83.927 49.9462C83.9594 48.2746 83.9772 45.6376 81.9654 45.2214C79.506 45.5546 78.6178 49.8643 78.2038 51.9066C77.7307 54.398 77.319 56.9122 76.5033 59.3184C76.0123 60.7626 75.46 62.2522 74.4836 63.4314C74.9947 63.7043 75.4667 64.0534 75.8606 64.4833C76.7198 65.41 77.1014 66.7212 77.3926 67.9174C76.6417 66.952 76.0012 65.8774 75.0728 65.0735C74.7347 64.7801 74.3832 64.5072 73.9859 64.3002C73.8956 64.257 73.7996 64.2183 73.7159 64.1626C73.3019 64.4594 72.8924 64.6129 72.503 64.6436C73.1156 65.7955 73.3075 67.1681 73.3477 68.4644C73.3209 70.1962 72.6168 71.9076 71.6951 73.3211C72.5532 70.6682 72.821 67.6331 71.6069 65.053C71.4619 64.8551 71.4809 64.6448 71.5835 64.4867C71.4708 64.4378 71.3615 64.3775 71.2566 64.307C71.2443 64.3662 71.2309 64.423 71.2175 64.4753C70.7622 67.3568 68.4067 69.5162 65.9674 70.7671C67.9927 68.9568 69.9187 66.7382 70.3159 63.9318C70.3215 63.776 70.3739 63.6134 70.4677 63.494C70.1909 63.0767 69.9778 62.5649 69.8495 61.9907C68.8954 57.7947 69.5493 53.4463 69.2369 49.1888C68.843 42.0306 65.9072 34.2571 58.7245 31.7918C54.7063 30.4989 50.302 31.5303 46.7135 33.593C38.5298 38.5635 33.937 48.5282 31.1797 57.4797C30.4176 59.9859 29.7872 62.5308 29.073 65.0507C28.5954 66.7121 28.0621 68.3905 27.1326 69.8528C26.9563 70.1303 26.7521 70.3896 26.5278 70.6215C27.3011 71.0491 28.023 71.5688 28.6691 72.1771C30.2625 73.5633 31.2545 75.5442 31.6997 77.5933C30.4734 74.8949 28.3678 72.7298 25.8047 71.3709C25.7601 71.3527 25.721 71.3311 25.6864 71.3061C25.114 71.6575 24.488 71.836 23.8944 71.7541C23.8687 71.9326 23.8408 72.1112 23.8096 72.2908C23.2873 75.6556 21.3201 78.6133 19.1453 81.0968C20.9017 78.0868 22.5252 74.8778 22.9548 71.3686C22.629 71.1276 22.3322 70.7728 22.0856 70.2827C21.8747 69.8108 21.7452 69.3093 21.656 68.7987C21.5288 68.8976 21.4105 68.9852 21.3201 69.0534C19.0594 70.8285 16.0901 70.6375 13.3965 70.4396C16.1403 69.8278 19.4399 69.7755 21.5009 67.5524C21.435 62.3546 23.2159 57.3591 24.4177 52.3648C25.6195 47.756 26.4854 43.0892 27.1471 38.3872C26.8023 38.3918 26.4519 38.3713 26.1283 38.3906C25.1028 38.3997 24.0796 38.4043 23.0541 38.3906C22.8399 38.3792 22.6212 38.4099 22.4148 38.3372C22.2552 38.2735 22.1469 38.1302 22.1146 37.9721C21.9952 37.9835 21.8713 37.9505 21.7731 37.8732C21.5422 37.689 21.5544 37.3501 21.4384 37.0966C20.9485 35.7161 20.4419 34.3436 19.9376 32.9699C19.3372 34.306 18.7046 35.6274 18.0953 36.959C17.8587 37.3444 17.7974 38.0119 17.293 38.1143C17.1903 38.1257 17.0843 38.1052 16.994 38.0529C15.5623 38.2871 14.0861 38.3019 12.6366 38.3303C12.1701 38.4088 11.841 38.0756 11.8834 37.755C11.7896 37.6651 11.7193 37.5434 11.6669 37.4206C11.4727 37.0556 11.2797 36.6895 11.0878 36.3222C10.8947 35.9537 10.7073 35.583 10.5254 35.21C10.5611 38.4645 10.6146 41.7224 10.3234 44.961C10.8099 45.1361 10.6425 45.6683 10.5477 46.0572C10.3 47.3103 10.0757 48.568 9.81458 49.8177C9.64832 50.583 9.48541 51.3471 9.32807 52.1113C9.33477 52.1147 9.34258 52.1192 9.34927 52.1226C11.9012 53.3485 14.9453 53.5714 17.6769 52.9539C18.6008 52.7663 19.5426 52.5331 20.4442 52.3137C18.651 53.3667 16.667 54.3685 14.5469 54.298C13.0305 54.24 11.5029 54.0148 10.0601 53.5247C9.82797 53.4133 9.43408 53.3121 9.11606 53.154C8.77015 54.8893 8.45436 56.6246 8.18656 58.3678C8.30038 58.3712 8.41642 58.4201 8.51239 58.5304C10.9092 60.9877 14.8069 60.5295 17.8732 60.0143C16.0633 60.9457 13.9343 61.6655 11.88 61.2459C10.4785 60.9957 9.05469 60.4874 8.02365 59.4617C7.75026 61.388 7.53937 63.3257 7.41439 65.285C6.99706 71.0229 7.02608 77.0634 9.72308 82.2749C12.2125 87.0668 17.0832 90.8853 22.5442 90.8125C30.1543 90.8602 34.6924 84.2376 36.875 77.5512C39.3645 70.0382 40.3241 61.62 44.917 55.0746C44.831 54.8438 44.7306 54.6175 44.6246 54.3958C44.022 53.0016 42.9877 51.8827 41.7346 51.0742C41.1387 50.6603 40.4982 50.2668 39.9068 49.8734C41.854 50.484 43.9796 51.2607 45.0698 53.1427C45.2662 53.4633 45.447 53.7976 45.6043 54.1433C45.842 53.8374 46.0897 53.535 46.3475 53.2393C47.5158 51.9748 48.9284 50.7444 50.5431 50.1076C50.6692 49.8484 50.8656 49.58 50.9057 49.3287C52.0484 45.7058 52.0919 43.2064 50.9024 39.6039C50.9024 39.6005 50.9057 39.5994 50.908 39.6017C52.5784 42.4286 53.1039 45.2623 52.1845 48.4611C52.103 48.7067 51.987 49.2355 51.8174 49.7438C52.0919 49.696 52.3719 49.6676 52.6565 49.6596C54.0714 49.7324 55.175 50.1645 56.0409 50.8502C56.8008 50.8252 57.5506 50.5295 58.258 50.3044C61.0164 49.2423 63.517 47.4536 65.2321 45.0156C65.6003 44.447 65.9239 43.8181 66.2442 43.2382C65.5579 46.5177 63.1477 49.1343 60.2231 50.5386C59.1809 51.0333 58.0784 51.5268 56.9358 51.7417C57.9981 53.0608 58.5727 54.8756 58.9197 56.8122C58.9432 56.8236 58.9655 56.8349 58.9878 56.8497C61.947 57.6048 65.1317 57.3364 67.9749 56.28C66.339 57.5274 64.2613 58.2939 62.1914 58.2654C61.5576 58.237 60.0858 58.1961 59.0949 57.9334C59.4007 60.1497 59.4799 62.4262 59.7075 64.2263C60.0847 68.4087 61.4996 72.8753 65.0848 75.3043C68.6466 77.8116 72.9895 75.6806 75.6675 72.848C79.9356 68.3814 81.9843 62.267 83.2519 56.2937C83.676 54.2059 83.8701 52.0737 83.9304 49.9484L83.927 49.9462ZM84.745 47.2045C84.9837 48.4338 84.9279 49.6983 84.8755 50.9412C84.7427 54.3457 84.0777 57.7048 83.1035 60.9593C81.2635 67.0589 78.186 73.5383 72.3434 76.5267C67.514 78.967 63.0015 76.1776 60.6716 71.687C58.9008 68.2142 58.6877 64.2456 58.3641 60.4192C58.1186 57.8856 57.9278 55.1827 56.5575 52.9789C53.827 48.751 49.4719 51.0731 46.8809 54.1342C46.5762 54.5004 46.285 54.8734 46.0071 55.252C46.0641 55.4681 46.1221 55.6955 46.0105 55.9036C45.9056 56.1151 45.6199 56.2027 45.4057 56.1163C40.5306 63.4485 40.092 72.889 36.6385 80.9171C33.9192 87.1782 28.9592 92.1827 21.8267 91.8007C15.5311 91.5255 10.1415 86.5823 7.96451 80.7443C6.00396 75.8558 6.06756 70.4737 6.42352 65.2918C6.74488 59.6562 7.8797 54.124 9.05023 48.6203C9.26001 45.3328 9.626 42.1215 9.57468 38.8443C9.5691 36.8839 9.51888 34.9167 9.50884 32.9517C8.69873 31.0481 7.84399 29.1628 7.03612 27.2569C6.90222 26.9419 7.14547 26.5417 7.49139 26.5587C7.50812 26.5587 7.52375 26.5587 7.53937 26.5621C7.74134 26.3973 7.99575 26.3188 8.25351 26.2926C8.75564 26.2312 9.25889 26.1789 9.76325 26.1278C9.85475 25.1999 9.9775 24.2731 10.1404 23.3497C10.1739 23.1371 10.2096 22.9256 10.2475 22.7129C8.42535 22.7095 6.60317 22.6766 4.78322 22.6197C3.30137 22.5094 1.68339 22.6072 0.338794 21.8794C0.114508 21.71 -0.0327839 21.453 0.00627086 21.1619C0.152447 20.4307 1.0362 20.2943 1.62872 20.1066C4.39379 19.438 7.19011 18.7375 10.0299 18.5192C9.91278 18.2656 10.0366 17.9529 10.1605 17.7096C10.4729 16.9681 10.7709 16.2199 11.0811 15.4774C12.3319 12.4662 13.6397 9.47784 14.9564 6.49514C15.3838 5.53312 15.81 4.57111 16.2419 3.61023C16.6213 2.93818 16.8868 1.59068 17.7025 1.40988C18.8039 1.32914 19.4321 2.77557 20.0402 3.5204C20.3906 4.02528 20.732 4.53586 21.0601 5.05553C21.955 4.05144 22.6614 2.88247 23.4402 1.78399C23.7114 1.41897 23.9189 0.906126 24.3719 0.748065C25.4867 0.506992 26.0234 2.40373 26.4619 3.17926C27.146 4.64616 27.7931 6.13012 28.4314 7.61635C29.7425 10.6821 30.9309 13.8024 32.0278 16.9522C33.1615 17.0011 34.2941 17.1001 35.42 17.2285C36.4454 17.3741 37.5189 17.4719 38.4618 17.9404C39.5698 18.4362 39.533 19.645 38.4249 20.1146C36.875 20.6866 35.1845 20.7821 33.5688 21.0812C32.2699 21.279 30.9677 21.4564 29.6622 21.6145C29.6667 22.5185 29.6443 23.4237 29.6019 24.3277C30.5303 24.2549 31.4587 24.1912 32.3871 24.1435C32.6069 24.1548 32.829 24.1833 33.0477 24.2333C33.1581 24.1503 33.3032 24.1264 33.4951 24.1969C33.6279 24.2538 33.715 24.3561 33.7574 24.4755C33.7931 24.4937 33.8288 24.5108 33.8645 24.5301C33.8377 24.5483 33.8109 24.5676 33.7841 24.5858C33.802 24.7063 33.7808 24.8348 33.7239 24.9508C33.0689 26.9033 32.3447 28.8296 31.6529 30.7673C30.9778 32.6879 30.277 34.5971 29.5506 36.4973C29.4602 36.7656 29.3531 37.0454 29.2103 37.2967C29.2772 37.3933 29.3096 37.5127 29.2906 37.6401C29.2025 38.1041 28.7472 38.1063 28.3321 38.1302C28.283 38.1586 28.2339 38.1837 28.1826 38.2064C27.272 44.7506 25.8449 51.2107 24.0763 57.5718C23.5462 59.6368 23.0865 61.6007 22.7595 63.6646C22.5185 65.3725 22.302 67.126 22.6669 68.8306C22.7484 69.3752 22.9872 70.0245 23.3945 70.4191C23.5674 70.3793 23.7582 70.4259 23.8799 70.5897C23.9211 70.6375 23.9479 70.6932 23.9647 70.75C24.1164 70.7887 24.2804 70.7955 24.459 70.7637C26.8993 69.9734 27.6168 66.3061 28.312 64.0932C29.6566 59.025 31.057 53.9523 33.1671 49.1502C35.7168 43.5361 39.071 38.0699 43.9473 34.2651C49.4518 29.9099 57.5673 28.402 63.2771 33.1894C68.1244 37.0488 69.9365 43.5487 70.2467 49.5789C70.596 52.5445 69.469 62.1033 71.9395 63.5736C73.8498 64.066 75.0114 60.5124 75.5303 59.1081C76.9195 55.2702 76.9106 51.0822 78.4973 47.3285C79.2059 45.724 80.7893 43.6317 82.7342 44.3879C83.8623 44.8518 84.5129 46.0356 84.7427 47.2034L84.745 47.2045Z" fill="black"/>
<path d="M16.8623 24.788C15.675 24.5413 14.5547 24.2854 13.354 24.1854C12.9189 24.1399 12.1802 24.3104 12.1567 23.6623C12.1567 23.3871 12.381 23.1619 12.6499 23.1597C14.2289 23.1631 15.7732 23.5452 17.3142 23.859C18.1522 24.1774 17.6646 25.0996 16.8623 24.7892V24.788Z" fill="black"/>
<path d="M23.0735 24.0527C22.9195 23.9469 22.8615 23.7252 22.9084 23.5489C22.9954 23.201 23.3726 23.1441 23.6571 23.0361C24.7451 22.6847 25.8609 22.4277 26.9857 22.2355C27.326 22.181 27.7534 22.2924 27.9609 22.5903C27.9676 22.7154 27.8382 22.8337 27.7556 22.9178C27.3885 23.2817 26.7369 23.2703 26.3028 23.3829C25.4626 23.558 24.6223 23.7604 23.81 24.0424C23.5667 24.1448 23.3067 24.2312 23.0724 24.0515L23.0735 24.0527Z" fill="black"/>
<path d="M17.7283 41.3206C16.6537 41.2296 15.7041 41.0636 14.7066 40.7838C14.374 40.6531 13.9511 40.6576 13.699 40.379C13.5003 40.1266 13.613 39.7536 13.8931 39.6262C14.0906 39.5364 14.2892 39.6126 14.4834 39.6717C14.9833 39.8241 15.5379 39.9753 16.0434 40.0777C18.1333 40.4859 20.2959 40.437 22.3602 40.0822C22.7987 40.022 23.3343 39.6626 23.6981 40.08C24.4959 41.5162 18.5016 41.3922 17.7283 41.3228V41.3206Z" fill="black"/>
<path d="M26.8909 34.7372C26.3788 34.6371 25.3723 34.7065 25.6445 33.8786C25.9291 33.2794 26.2237 32.6869 26.5104 32.0877C27.3752 30.2853 28.2221 28.4738 29.0468 26.6522C29.1572 26.3372 29.5288 25.9631 29.8691 26.1689C30.0008 26.3247 30.1827 26.4702 30.2139 26.684C29.81 28.6785 29.213 30.6662 28.7053 32.6471C28.4341 33.5455 28.1329 35.0908 26.8909 34.7372ZM27.2391 33.774C27.6999 32.9178 27.8573 31.9182 28.1306 30.9869C27.9811 31.303 27.8316 31.618 27.681 31.933C27.3975 32.5266 27.1052 33.1156 26.8206 33.7092C26.9601 33.7308 27.0996 33.7558 27.2402 33.774H27.2391Z" fill="#00FF53"/>
<path d="M26.619 34.1515C26.3423 33.7808 26.6848 33.3532 26.8042 32.9859C27.2082 32.0921 27.4615 30.988 28.3731 30.4888C28.69 31.4963 28.0819 32.4264 27.7326 33.3316C27.5474 33.6636 27.5306 34.2027 27.1122 34.3186C26.9325 34.3607 26.7339 34.3084 26.6201 34.1503L26.619 34.1515Z" fill="#00FF53"/>
<path d="M10.9502 29.6303C10.6389 29.4325 10.4381 29.0504 10.5262 28.6774C10.5999 28.3556 11.0094 28.2055 11.2716 28.3909C11.5684 28.2055 11.9779 28.2976 12.1844 28.5796C12.7256 29.3597 11.6209 30.1307 10.9502 29.6303Z" fill="#00FF53"/>
<path d="M11.6054 30.2519C9.67392 29.8676 9.9049 26.8565 11.9659 27.0009C12.9132 27.0407 13.7613 28.0038 13.5136 28.9784C13.3071 29.8107 12.4624 30.4964 11.6054 30.2519ZM11.9357 29.2751H11.9436C11.9781 29.266 12.0116 29.257 12.0451 29.2467C11.9681 29.183 11.9067 29.0989 11.8587 29.0182C11.8275 28.9715 11.7951 28.9215 11.7661 28.8692C11.7394 28.9022 11.7092 28.9295 11.6757 28.9556C11.6568 29.1159 11.7594 29.3013 11.9346 29.2751H11.9357Z" fill="#00FF53"/>
<path d="M10.6065 48.4051C10.1702 46.6426 10.467 44.8038 10.7873 43.0481C10.9881 42.5546 11.7234 42.7092 11.7257 43.2425C11.4512 44.9801 11.4556 46.8234 10.6098 48.4074C10.6087 48.4074 10.6076 48.4074 10.6065 48.4051Z" fill="#F7A6F3"/>
<path d="M9.69011 51.4622C9.56848 51.3075 9.55955 51.1199 9.58075 50.9323C9.63543 50.4263 9.71131 49.9225 9.78161 49.4188C9.93782 48.3066 10.0795 47.1911 10.1476 46.0688C10.1956 45.3296 10.2313 44.5859 10.2949 43.8468C10.4054 43.359 10.1978 42.4936 10.8283 42.3583C11.1429 42.3071 11.4342 42.6051 11.384 42.9246C11.1396 44.951 11.1463 47.0012 10.8327 49.0219C10.739 49.7133 10.633 50.4047 10.5549 51.0983C10.5437 51.5429 9.99027 51.8704 9.68899 51.4622H9.69011Z" fill="#F7A6F3"/>
<path d="M19.7986 91.8339C16.1398 91.0891 13.7072 89.1014 11.2523 86.3586C7.97287 82.672 6.88157 77.5925 6.61376 72.7517C6.07704 65.7901 7.194 58.8741 8.41363 52.0479C8.86778 48.7343 9.1791 45.3911 9.46252 42.0604C9.76046 36.5431 9.25163 30.9927 10.0495 25.5026C10.2146 24.146 10.4199 22.7963 10.5906 21.4408C10.6286 21.1702 10.8797 20.9746 11.1463 21.011C11.4119 21.0485 11.6061 21.3066 11.5681 21.5772C11.4978 22.0912 11.4365 22.6041 11.365 23.1169C11.0571 25.2127 10.7971 27.4244 10.6576 29.4917C10.3541 34.9431 10.8462 40.4218 10.1053 45.8505C9.8341 48.5512 9.58415 51.2542 9.1088 53.9276C8.62899 56.6419 8.14024 59.3585 7.84677 62.1036C7.30224 68.2657 7.0813 74.645 9.0173 80.5467C10.2012 84.0366 12.7253 86.8897 15.612 89.0354C18.3 90.7741 21.7045 91.5724 24.8255 90.9265C29.6973 90.0657 33.4075 86.163 35.5332 81.801C37.2628 78.2293 38.1376 74.3141 39.268 70.5206C40.0167 67.8654 40.8279 65.2273 41.6871 62.6084C42.1245 61.27 42.6289 59.9555 43.2739 58.7058C44.3719 56.4702 45.8102 54.3563 47.6435 52.6824C49.4211 51.1962 51.7755 50.258 54.0931 50.5298C55.9611 50.6151 57.2153 52.2423 57.9785 53.8264C58.4104 54.7463 58.8533 55.7356 58.9069 56.7636C58.8801 56.9921 58.7551 57.2719 58.5353 57.364C58.2162 57.3663 58.0042 56.9637 57.9417 56.6976C57.6973 55.4593 57.1706 54.2653 56.4933 53.2203C54.872 50.4252 51.096 51.4714 48.9089 52.9633C45.8024 55.3786 43.8898 59.1675 42.649 62.8518C41.5577 66.1472 40.5757 69.4813 39.6474 72.8279C38.4679 76.8101 37.4536 80.9231 35.1906 84.4437C31.8755 89.7939 26.0909 93.2656 19.7975 91.8339H19.7986Z" fill="black"/>
<path d="M29.3255 24.8928C29.5242 23.4259 29.407 21.9783 29.311 20.5398C29.3958 20.1509 29.9381 20.0554 30.1635 20.3704C30.3577 20.6945 30.3253 21.1107 30.3722 21.4779C30.4313 22.6356 30.4537 23.8068 30.312 24.9405C30.2372 25.5864 29.3244 25.5489 29.3267 24.8928H29.3255Z" fill="black"/>
<path d="M23.9752 71.1757C19.6022 69.7611 23.7922 57.0752 24.522 53.7082C25.8286 48.9299 26.9913 44.0982 27.6787 39.2017C27.8104 38.4103 27.9197 37.6166 28.0469 36.8263C28.1563 36.1838 29.0992 36.2998 29.0255 36.9627C28.953 37.4017 28.8994 37.844 28.8236 38.2829C27.9052 45.3332 25.9168 52.1491 24.2084 59.0265C23.4954 61.8057 22.9408 64.6792 23.02 67.5323C23.3046 71.4292 25.4738 70.6696 26.824 67.7825C27.9845 65.2705 28.558 62.5346 29.3134 59.8805C30.3155 56.3486 31.3275 52.795 32.8607 49.4575C35.734 43.0293 38.7635 37.6325 44.7557 33.7185C46.4395 32.5529 48.3208 31.7251 50.2691 31.1463C53.4113 30.0842 55.7669 29.7089 58.9995 30.7892C60.2425 31.1554 61.3852 31.7876 62.4608 32.5086C62.8592 32.7769 63.4138 33.0271 63.4305 33.5832C63.4339 33.6741 63.4238 33.7958 63.3345 33.8436C63.2107 33.9118 63.0567 33.9072 62.9206 33.8902C62.3414 33.7446 61.9587 33.3239 61.4476 33.0487C60.7346 32.5893 59.9837 32.1902 59.1858 31.9082C56.4576 30.928 54.1902 30.8984 51.4664 31.8297C48.0954 32.6882 45.0525 34.4133 42.4492 36.733C39.3371 39.4189 37.1054 42.9088 35.3133 46.6022C34.1941 48.8571 33.1118 51.1234 32.295 53.5103C31.2773 56.5101 30.4025 59.5564 29.5913 62.6199C28.8046 65.2432 27.4912 71.6237 23.9774 71.1768L23.9752 71.1757Z" fill="black"/>
<path d="M68.6241 77.2527C64.7053 77.1072 61.5195 73.7981 60.2173 70.2116C58.4654 65.4265 58.8761 60.1309 57.363 55.2981C56.8508 53.6993 55.9403 52.1505 54.416 51.3818C54.1014 51.1589 53.6104 51.2396 53.3961 50.8883C53.2198 50.5926 53.4285 50.1867 53.7621 50.148C53.9741 50.1332 54.1817 50.2151 54.3814 50.2776C61.2997 53.0318 58.0894 66.467 62.42 72.3494C63.7501 74.3439 65.8724 75.9552 68.257 76.235C69.3293 76.2782 70.3247 76.2884 71.3178 75.9621C71.984 75.7187 72.4995 75.4026 73.0998 75.0671C73.4524 74.8625 73.8932 74.7726 74.296 74.8295C74.306 75.0876 74.1777 75.348 74.0293 75.5538C73.8318 75.8211 73.5461 75.9712 73.2627 76.1247C72.7628 76.3953 72.2685 76.683 71.734 76.8775C70.7375 77.2504 69.6674 77.2675 68.623 77.2539L68.6241 77.2527Z" fill="black"/>
<path d="M72.6264 75.816C72.574 75.3441 72.9835 75.2792 73.2993 75.1428C75.2074 73.9022 76.6982 71.886 78.0015 70.078C78.8015 68.7987 79.5001 67.4558 80.1941 66.1151C81.0053 64.4594 81.4919 62.6696 82.0687 60.9218C83.2895 57.0282 84.0137 52.9437 84.0003 48.8557C83.7849 44.8564 80.6137 45.1338 79.1597 48.3064C77.9278 51.1447 77.8865 54.3025 77.1546 57.2807C76.7406 59.232 76.2485 61.239 75.0367 62.8526C73.6575 64.8938 71.0598 64.9256 70.301 62.3512C69.7699 60.335 70.1113 58.1995 70.1281 56.1379C70.2084 54.1774 70.2709 52.2148 70.1281 50.2555C69.7833 46.0629 68.7634 41.8566 66.8832 38.1109C66.3576 36.976 65.4817 36.1152 64.6024 35.284C61.9957 32.8937 58.9595 31.0527 55.3754 31.0618C55.0295 31.0607 54.6691 30.9663 54.4314 30.6968C54.389 30.6433 54.3778 30.6354 54.4046 30.5751C54.4905 30.375 54.6903 30.2408 54.8755 30.1532C55.7838 29.9053 56.7791 30.176 57.6953 30.3045C59.6134 30.6581 61.4043 31.5269 62.9743 32.6913C66.6544 35.3783 67.7959 36.9828 69.2923 41.2926C70.6369 45.2259 71.2841 49.4106 71.197 53.5736C71.1613 55.6421 71.0196 57.706 71.0096 59.7756C71.0107 60.5534 71.0241 61.3505 71.2595 62.0964C71.9056 64.1183 73.6385 63.3734 74.4754 61.9316C75.5265 60.36 75.926 58.3416 76.2998 56.5506C77.1423 53.1142 76.9805 49.0296 79.3517 46.2221C80.5568 44.7336 82.9168 44.2628 84.1275 46.0015C85.2099 47.5116 85.0191 49.5038 84.922 51.2709C84.6921 54.1922 84.2078 57.1078 83.4122 59.9245C82.8342 61.786 82.2752 63.6589 81.57 65.476C80.2399 68.486 78.5806 71.3766 76.3444 73.785C75.7754 74.3673 73.1096 77.3318 72.6309 75.8182L72.6264 75.816Z" fill="black"/>
</svg>
