<svg width="197" height="250" viewBox="0 0 197 250" fill="none" xmlns="http://www.w3.org/2000/svg">
<path fill-rule="evenodd" clip-rule="evenodd" d="M59.5313 43.3371L60.1323 43.4143C70.8135 44.7864 88.453 47.4813 105.72 50.9538C122.831 54.3947 140.094 58.6956 149.682 63.3957L150.072 63.5869L150.41 63.8592C150.865 64.2253 151.386 64.7927 151.714 65.6095C152.055 66.4583 152.083 67.3212 151.921 68.0758C151.637 69.3934 150.816 70.2272 150.454 70.566C149.63 71.3389 148.497 71.9636 147.474 72.4629C145.271 73.5387 141.905 74.8127 137.56 76.2433C128.806 79.1259 115.493 82.832 98.1165 87.0284L97.3149 87.222L96.5036 87.0743C82.7209 84.5643 59.4182 80.1442 40.0974 76.1029C30.4492 74.0847 21.7343 72.1488 15.6854 70.5855C12.6968 69.8132 10.2071 69.0937 8.5626 68.4668C7.87959 68.2064 6.8223 67.7783 6.02603 67.1234C6.02306 67.121 6.01985 67.1183 6.01639 67.1155C5.77116 66.9143 4.32359 65.7269 4.43034 63.6408C4.54999 61.3026 6.39032 60.3242 6.88648 60.0935L6.91699 60.0791L7.05193 60.0157C7.16968 59.9605 7.34223 59.8798 7.5647 59.7764C8.00958 59.5695 8.65436 59.2715 9.45993 58.9042C11.0703 58.17 13.3271 57.157 15.9165 56.0404C21.061 53.822 27.6461 51.1388 33.0958 49.4431C38.1265 47.8778 44.6172 46.3766 49.7712 45.2783C52.3647 44.7256 54.6509 44.2685 56.2894 43.9493C57.1091 43.7897 57.7675 43.6644 58.2225 43.5788C58.45 43.536 58.6267 43.5031 58.7472 43.4807L58.934 43.4463C58.934 43.4463 58.9353 43.4461 59.6358 47.2792L58.9353 43.4461L59.5313 43.3371ZM59.7451 51.2223C59.7188 51.2273 59.6917 51.2324 59.6638 51.2376C59.2234 51.3205 58.5812 51.4427 57.7792 51.5989C56.1747 51.9114 53.9346 52.3593 51.3954 52.9004C46.284 53.9896 40.0835 55.4307 35.4112 56.8845C30.3711 58.4527 24.0958 61.0003 19.0024 63.1967C18.9085 63.2372 18.8151 63.2775 18.7221 63.3177C24.5327 64.785 32.6438 66.5819 41.693 68.4747C60.5516 72.4193 83.2556 76.7332 97.0882 79.2591C113.971 75.1671 126.782 71.5872 135.123 68.841C136.602 68.3537 137.924 67.8983 139.091 67.4763C130.048 64.3052 117.386 61.2491 104.184 58.5941C87.4456 55.228 70.3278 52.5977 59.7451 51.2223Z" fill="#FCFFFF"/>
<path fill-rule="evenodd" clip-rule="evenodd" d="M46.7379 69.7584C67.6248 74.447 90.5174 79.1881 98.1441 79.8143C98.1441 79.8143 98.1621 79.8157 98.2011 79.816C98.2416 79.8164 98.2993 79.8155 98.3766 79.8118C98.5334 79.8042 98.7481 79.7857 99.0317 79.7487C99.604 79.6742 100.376 79.5354 101.397 79.307C103.442 78.8497 106.304 78.0753 110.251 76.8832C118.1 74.5131 129.996 70.568 147.813 64.4072C148.141 64.2616 148.525 64.1442 148.964 64.0925C150.061 63.9629 151.003 64.302 151.664 64.7446C152.708 65.4436 153.125 66.4325 153.226 66.6721L153.23 66.6825C153.524 67.3775 153.666 68.1608 153.75 68.6977C153.943 69.9289 154.087 71.6841 154.202 73.7781C154.434 78.0223 154.571 84.1896 154.632 91.6062C154.754 106.462 154.573 126.55 154.213 146.799C153.852 167.052 153.312 187.498 152.712 203.075C152.412 210.859 152.097 217.455 151.78 222.211C151.622 224.582 151.461 226.543 151.296 227.982C151.215 228.693 151.125 229.345 151.021 229.882C150.97 230.145 150.902 230.455 150.807 230.763L150.803 230.777C150.746 230.964 150.532 231.663 150.004 232.319C146.775 236.324 131.707 248.785 97.9415 249.792C84.2299 250.201 60.99 246.077 41.749 241.607C32.0591 239.356 23.2121 236.978 16.8755 234.959C13.7319 233.957 11.0876 233.007 9.2447 232.171C8.37051 231.775 7.42724 231.294 6.6877 230.725C6.35542 230.47 5.71526 229.938 5.26213 229.1C4.96164 228.545 4.73076 227.798 4.7438 226.981C-3.79879 175.919 1.10312 98.4431 4.70114 65.0138C4.6689 64.7956 4.65367 64.5627 4.66113 64.3157C4.73088 62.0045 6.55028 61.0515 6.98444 60.858C7.54368 60.6087 8.03054 60.5518 8.17824 60.5351C8.3935 60.5109 8.57474 60.5074 8.68702 60.5074H13.035L12.9024 61.7152C14.5961 62.1686 16.9178 62.7585 19.7327 63.4509C26.6381 65.1496 36.3768 67.4326 46.7379 69.7584ZM12.064 69.5542C8.55727 104.395 4.4098 176.829 12.3161 225.006C12.3637 225.028 12.4132 225.051 12.4644 225.074C13.8827 225.717 16.1783 226.557 19.2413 227.533C25.318 229.469 33.9512 231.795 43.5124 234.016C62.7738 238.491 85.1198 242.378 97.709 242.002C127.425 241.116 140.516 230.921 143.441 227.97C143.475 227.741 143.513 227.451 143.554 227.095C143.697 225.841 143.849 224.025 144.004 221.693C144.314 217.046 144.626 210.535 144.924 202.776C145.522 187.266 146.061 166.876 146.421 146.661C146.781 126.442 146.96 106.43 146.839 91.6703C146.778 84.2792 146.642 78.2601 146.42 74.2038C146.4 73.8331 146.379 73.483 146.358 73.1533C130.712 78.5398 119.898 82.1113 112.504 84.3438C108.486 85.5572 105.415 86.3943 103.098 86.9125C100.905 87.4028 98.9959 87.7038 97.5064 87.5815C89.2035 86.8997 65.6629 81.9938 45.031 77.3625C34.6327 75.0283 24.8406 72.7331 17.8711 71.0186C15.6308 70.4675 13.6681 69.9729 12.064 69.5542Z" fill="#FCFFFF"/>
<path fill-rule="evenodd" clip-rule="evenodd" d="M95.6464 245.1L93.8768 83.2732L99.7213 83.2093L101.491 245.036L95.6464 245.1Z" fill="#FCFFFF"/>
<path fill-rule="evenodd" clip-rule="evenodd" d="M150.198 66.6327C150.987 67.4334 151.248 68.6161 150.867 69.6742L135.467 112.486C135.05 113.645 133.949 114.419 132.717 114.419H122.673C121.059 114.419 119.751 113.11 119.751 111.496V108.746L96.4905 85.2302C95.7456 84.4771 95.4665 83.38 95.761 82.3625C96.0554 81.3451 96.8774 80.5666 97.9093 80.3278L120.527 75.093L147.166 65.9217C148.229 65.5556 149.408 65.8321 150.198 66.6327ZM118.573 81.5447L104.328 84.8417L119.411 100.091L118.573 81.5447ZM124.352 79.9576L125.593 107.413C125.595 107.457 125.596 107.5 125.596 107.544V108.574H130.662L143.303 73.4331L124.352 79.9576Z" fill="#FCFFFF"/>
<path fill-rule="evenodd" clip-rule="evenodd" d="M129.367 80.4431C130.439 80.3499 131.384 81.1433 131.477 82.2153C131.774 85.6266 132.369 94.0381 132.369 100.365C132.369 101.441 131.497 102.313 130.421 102.313C129.345 102.313 128.473 101.441 128.473 100.365C128.473 94.2067 127.888 85.9266 127.595 82.5528C127.502 81.4808 128.295 80.5362 129.367 80.4431Z" fill="#FCFFFF"/>
<path fill-rule="evenodd" clip-rule="evenodd" d="M121.108 79.1384L30.8584 56.8765L31.7916 53.0933L122.041 75.3552L121.108 79.1384Z" fill="#FCFFFF"/>
<path d="M132.2 16.705L120.047 66.443C114.475 70.3239 109.464 67.5014 107.655 65.6051C111.418 51.2238 119.424 20.0988 121.352 10.6494C123.279 1.20002 133.96 1.30132 139.06 2.53314C139.06 2.53314 193.507 24.3754 194.813 26.9871C196.118 29.5988 191.77 36.0338 189.165 36.1902L135.996 12.6375C135.843 14.7559 133.401 16.2318 132.2 16.705Z" fill="#FCFFFF"/>
<path fill-rule="evenodd" clip-rule="evenodd" d="M128.487 0.710799C132.451 -0.408354 136.752 -0.0286367 139.518 0.639295C139.609 0.66134 139.698 0.689951 139.786 0.724907L139.06 2.53314C139.786 0.724907 139.786 0.724907 139.786 0.724907L140.399 0.971643C140.799 1.13254 141.385 1.36876 142.132 1.67026C143.625 2.27325 145.759 3.13743 148.323 4.18257C153.452 6.2726 160.305 9.08735 167.201 11.9845C174.094 14.8801 181.044 17.8645 186.36 20.2921C189.014 21.5042 191.286 22.5892 192.948 23.4615C193.774 23.8954 194.485 24.2951 195.027 24.6448C195.296 24.8183 195.559 25.0021 195.786 25.1913C195.958 25.3351 196.323 25.6511 196.555 26.1159C197.201 27.4069 197.038 28.8732 196.727 30.0165C196.398 31.2261 195.798 32.4612 195.097 33.5588C194.394 34.659 193.533 35.7062 192.62 36.5134C191.776 37.2592 190.601 38.0558 189.281 38.1351C188.971 38.1537 188.66 38.0977 188.375 37.9716L137.085 15.2509C136.698 15.8506 136.23 16.3496 135.785 16.7445C135.163 17.2979 134.484 17.7415 133.872 18.0697L121.94 66.9054C121.827 67.3665 121.55 67.7706 121.161 68.0418C117.918 70.3 114.721 70.6613 112.039 70.0971C109.433 69.549 107.388 68.1474 106.245 66.9499C105.779 66.461 105.599 65.7655 105.77 65.112C109.54 50.7031 117.529 19.6435 119.443 10.26C120.585 4.66026 124.41 1.86184 128.487 0.710799ZM138.469 4.39537C136.133 3.85269 132.62 3.59295 129.546 4.46085C126.525 5.31355 124.046 7.18918 123.261 11.0388C121.371 20.3047 113.712 50.1244 109.844 64.9356C110.584 65.4802 111.619 66.0269 112.841 66.2839C114.366 66.6046 116.246 66.4919 118.338 65.2314L130.307 16.2426C130.457 15.6276 130.897 15.1241 131.486 14.8921C131.91 14.725 132.615 14.3487 133.197 13.8319C133.799 13.2968 134.028 12.8326 134.052 12.4972C134.098 11.8646 134.449 11.2938 134.993 10.9672C135.536 10.6407 136.205 10.5992 136.785 10.8561L189.314 34.1257C189.481 34.0333 189.725 33.8721 190.04 33.5937C190.634 33.0687 191.267 32.3146 191.814 31.4601C192.362 30.6028 192.767 29.7297 192.967 28.9934C193.067 28.6281 193.104 28.3396 193.103 28.1304C193.103 28.0981 193.102 28.069 193.101 28.043C193.049 28.0072 192.988 27.9661 192.915 27.9194C192.517 27.6622 191.924 27.3248 191.137 26.9116C189.571 26.0895 187.375 25.0396 184.741 23.8366C179.481 21.4343 172.575 18.4685 165.692 15.577C158.813 12.6871 151.974 9.87806 146.853 7.79105C144.292 6.74767 142.162 5.88502 140.672 5.28331C139.928 4.98246 139.343 4.74685 138.944 4.58652L138.469 4.39537ZM193.324 28.214C193.324 28.214 193.314 28.2063 193.299 28.1913C193.317 28.2066 193.324 28.214 193.324 28.214Z" fill="#FCFFFF"/>
<path d="M14.5441 140.622L61.6408 88.3148L45.9419 123.809H87.8056L30.243 217.216L54.6635 144.359L14.5441 140.622Z" fill="#FCFFFF"/>
<path fill-rule="evenodd" clip-rule="evenodd" d="M62.398 87.1456C62.9726 87.5177 63.1917 88.2522 62.9148 88.8782L48.0812 122.416H87.8056C88.3104 122.416 88.7758 122.689 89.0219 123.13C89.268 123.571 89.2564 124.11 88.9915 124.54L31.4289 217.947C31.0576 218.549 30.2934 218.777 29.6524 218.477C29.0114 218.177 28.6973 217.444 28.9222 216.773L52.7841 145.583L14.415 142.009C13.8904 141.961 13.4383 141.62 13.2466 141.129C13.0549 140.639 13.1564 140.082 13.5089 139.69L60.6056 87.3827C61.0637 86.874 61.8235 86.7734 62.398 87.1456ZM17.4358 139.493L54.7927 142.972C55.2163 143.011 55.5986 143.242 55.8308 143.598C56.063 143.955 56.1195 144.398 55.9843 144.801L35.4154 206.167L85.3109 125.202H45.9419C45.4708 125.202 45.0316 124.964 44.7746 124.569C44.5175 124.175 44.4774 123.677 44.668 123.246L56.8372 95.7317L17.4358 139.493Z" fill="#FCFFFF"/>
<path d="M97.0634 243.148C97.0634 243.148 100.565 55.4184 97.0634 104.323C93.5619 153.227 100.565 233.683 63.7987 238.416C77.8049 243.148 88.8932 243.674 97.0634 243.148Z" fill="#FCFFFF"/>
<path d="M195.294 32.8847C193.637 36.2933 190.616 38.241 188.547 37.235C186.479 36.229 186.145 32.6502 187.803 29.2416C189.461 25.833 192.481 23.8853 194.55 24.8914C196.619 25.8974 196.952 29.4761 195.294 32.8847Z" fill="#FCFFFF"/>
</svg>
